ISO-10303-21;
HEADER;
/* Generated by software containing ST-Developer
 * from STEP Tools, Inc. (www.steptools.com) 
 */

FILE_DESCRIPTION(
/* description */ (''),
/* implementation_level */ '2;1');

FILE_NAME(
/* name */ 'sample-file.step',
/* time_stamp */ '2026-05-18T22:41:09+07:00',
/* author */ (''),
/* organization */ (''),
/* preprocessor_version */ 'ST-DEVELOPER v20.1',
/* originating_system */ 'Autodesk Translation Framework v15.8.0.0',
/* authorisation */ '');

FILE_SCHEMA (('AUTOMOTIVE_DESIGN { 1 0 10303 214 3 1 1 }'));
ENDSEC;

DATA;
#10=MECHANICAL_DESIGN_GEOMETRIC_PRESENTATION_REPRESENTATION('',(#13),#1916);
#11=SHAPE_REPRESENTATION_RELATIONSHIP('SRR','None',#1923,#12);
#12=ADVANCED_BREP_SHAPE_REPRESENTATION('',(#14),#1915);
#13=STYLED_ITEM('',(#1932),#14);
#14=MANIFOLD_SOLID_BREP('Body1',#1094);
#15=TOROIDAL_SURFACE('',#1205,34.9163311740174,1.);
#16=TOROIDAL_SURFACE('',#1214,39.4336234800863,1.);
#17=FACE_BOUND('',#163,.T.);
#18=FACE_BOUND('',#164,.T.);
#19=FACE_BOUND('',#165,.T.);
#20=FACE_BOUND('',#166,.T.);
#21=FACE_BOUND('',#167,.T.);
#22=FACE_BOUND('',#181,.T.);
#23=FACE_BOUND('',#185,.T.);
#24=FACE_BOUND('',#189,.T.);
#25=FACE_BOUND('',#193,.T.);
#26=FACE_BOUND('',#205,.T.);
#27=FACE_BOUND('',#207,.T.);
#28=FACE_BOUND('',#209,.T.);
#29=FACE_BOUND('',#211,.T.);
#30=FACE_BOUND('',#214,.T.);
#31=FACE_BOUND('',#231,.T.);
#32=FACE_BOUND('',#232,.T.);
#33=FACE_BOUND('',#233,.T.);
#34=FACE_BOUND('',#234,.T.);
#35=FACE_BOUND('',#235,.T.);
#36=FACE_BOUND('',#241,.T.);
#37=PLANE('',#1121);
#38=PLANE('',#1122);
#39=PLANE('',#1123);
#40=PLANE('',#1143);
#41=PLANE('',#1144);
#42=PLANE('',#1149);
#43=PLANE('',#1150);
#44=PLANE('',#1155);
#45=PLANE('',#1156);
#46=PLANE('',#1157);
#47=PLANE('',#1164);
#48=PLANE('',#1171);
#49=PLANE('',#1178);
#50=PLANE('',#1201);
#51=PLANE('',#1202);
#52=PLANE('',#1203);
#53=PLANE('',#1204);
#54=PLANE('',#1210);
#55=PLANE('',#1222);
#56=PLANE('',#1226);
#57=PLANE('',#1230);
#58=PLANE('',#1234);
#59=PLANE('',#1235);
#60=PLANE('',#1237);
#61=PLANE('',#1239);
#62=PLANE('',#1240);
#63=PLANE('',#1243);
#64=PLANE('',#1244);
#65=CYLINDRICAL_SURFACE('',#1115,6.);
#66=CYLINDRICAL_SURFACE('',#1118,6.);
#67=CYLINDRICAL_SURFACE('',#1139,6.);
#68=CYLINDRICAL_SURFACE('',#1141,6.);
#69=CYLINDRICAL_SURFACE('',#1145,6.);
#70=CYLINDRICAL_SURFACE('',#1147,6.);
#71=CYLINDRICAL_SURFACE('',#1151,6.);
#72=CYLINDRICAL_SURFACE('',#1153,6.);
#73=CYLINDRICAL_SURFACE('',#1160,5.5);
#74=CYLINDRICAL_SURFACE('',#1162,3.3);
#75=CYLINDRICAL_SURFACE('',#1167,5.5);
#76=CYLINDRICAL_SURFACE('',#1169,3.3);
#77=CYLINDRICAL_SURFACE('',#1174,5.5);
#78=CYLINDRICAL_SURFACE('',#1176,3.3);
#79=CYLINDRICAL_SURFACE('',#1181,5.5);
#80=CYLINDRICAL_SURFACE('',#1183,3.3);
#81=CYLINDRICAL_SURFACE('',#1187,7.6);
#82=CYLINDRICAL_SURFACE('',#1191,7.60000000000001);
#83=CYLINDRICAL_SURFACE('',#1195,7.60000000000001);
#84=CYLINDRICAL_SURFACE('',#1199,7.6);
#85=CYLINDRICAL_SURFACE('',#1236,10.);
#86=CYLINDRICAL_SURFACE('',#1238,10.);
#87=CYLINDRICAL_SURFACE('',#1241,10.);
#88=CYLINDRICAL_SURFACE('',#1242,10.);
#89=SPHERICAL_SURFACE('',#1112,15.);
#90=FACE_OUTER_BOUND('',#156,.T.);
#91=FACE_OUTER_BOUND('',#157,.T.);
#92=FACE_OUTER_BOUND('',#158,.T.);
#93=FACE_OUTER_BOUND('',#159,.T.);
#94=FACE_OUTER_BOUND('',#160,.T.);
#95=FACE_OUTER_BOUND('',#161,.T.);
#96=FACE_OUTER_BOUND('',#162,.T.);
#97=FACE_OUTER_BOUND('',#168,.T.);
#98=FACE_OUTER_BOUND('',#169,.T.);
#99=FACE_OUTER_BOUND('',#170,.T.);
#100=FACE_OUTER_BOUND('',#171,.T.);
#101=FACE_OUTER_BOUND('',#172,.T.);
#102=FACE_OUTER_BOUND('',#173,.T.);
#103=FACE_OUTER_BOUND('',#174,.T.);
#104=FACE_OUTER_BOUND('',#175,.T.);
#105=FACE_OUTER_BOUND('',#176,.T.);
#106=FACE_OUTER_BOUND('',#177,.T.);
#107=FACE_OUTER_BOUND('',#178,.T.);
#108=FACE_OUTER_BOUND('',#179,.T.);
#109=FACE_OUTER_BOUND('',#180,.T.);
#110=FACE_OUTER_BOUND('',#182,.T.);
#111=FACE_OUTER_BOUND('',#183,.T.);
#112=FACE_OUTER_BOUND('',#184,.T.);
#113=FACE_OUTER_BOUND('',#186,.T.);
#114=FACE_OUTER_BOUND('',#187,.T.);
#115=FACE_OUTER_BOUND('',#188,.T.);
#116=FACE_OUTER_BOUND('',#190,.T.);
#117=FACE_OUTER_BOUND('',#191,.T.);
#118=FACE_OUTER_BOUND('',#192,.T.);
#119=FACE_OUTER_BOUND('',#194,.T.);
#120=FACE_OUTER_BOUND('',#195,.T.);
#121=FACE_OUTER_BOUND('',#196,.T.);
#122=FACE_OUTER_BOUND('',#197,.T.);
#123=FACE_OUTER_BOUND('',#198,.T.);
#124=FACE_OUTER_BOUND('',#199,.T.);
#125=FACE_OUTER_BOUND('',#200,.T.);
#126=FACE_OUTER_BOUND('',#201,.T.);
#127=FACE_OUTER_BOUND('',#202,.T.);
#128=FACE_OUTER_BOUND('',#203,.T.);
#129=FACE_OUTER_BOUND('',#204,.T.);
#130=FACE_OUTER_BOUND('',#206,.T.);
#131=FACE_OUTER_BOUND('',#208,.T.);
#132=FACE_OUTER_BOUND('',#210,.T.);
#133=FACE_OUTER_BOUND('',#212,.T.);
#134=FACE_OUTER_BOUND('',#213,.T.);
#135=FACE_OUTER_BOUND('',#215,.T.);
#136=FACE_OUTER_BOUND('',#216,.T.);
#137=FACE_OUTER_BOUND('',#217,.T.);
#138=FACE_OUTER_BOUND('',#218,.T.);
#139=FACE_OUTER_BOUND('',#219,.T.);
#140=FACE_OUTER_BOUND('',#220,.T.);
#141=FACE_OUTER_BOUND('',#221,.T.);
#142=FACE_OUTER_BOUND('',#222,.T.);
#143=FACE_OUTER_BOUND('',#223,.T.);
#144=FACE_OUTER_BOUND('',#224,.T.);
#145=FACE_OUTER_BOUND('',#225,.T.);
#146=FACE_OUTER_BOUND('',#226,.T.);
#147=FACE_OUTER_BOUND('',#227,.T.);
#148=FACE_OUTER_BOUND('',#228,.T.);
#149=FACE_OUTER_BOUND('',#229,.T.);
#150=FACE_OUTER_BOUND('',#230,.T.);
#151=FACE_OUTER_BOUND('',#236,.T.);
#152=FACE_OUTER_BOUND('',#237,.T.);
#153=FACE_OUTER_BOUND('',#238,.T.);
#154=FACE_OUTER_BOUND('',#239,.T.);
#155=FACE_OUTER_BOUND('',#240,.T.);
#156=EDGE_LOOP('',(#717,#718,#719,#720,#721));
#157=EDGE_LOOP('',(#722,#723,#724,#725,#726));
#158=EDGE_LOOP('',(#727,#728,#729,#730));
#159=EDGE_LOOP('',(#731,#732,#733,#734));
#160=EDGE_LOOP('',(#735,#736,#737,#738));
#161=EDGE_LOOP('',(#739,#740,#741,#742));
#162=EDGE_LOOP('',(#743,#744,#745,#746,#747,#748,#749,#750,#751,#752,#753,
#754,#755,#756,#757,#758,#759,#760,#761,#762,#763,#764,#765,#766));
#163=EDGE_LOOP('',(#767));
#164=EDGE_LOOP('',(#768));
#165=EDGE_LOOP('',(#769));
#166=EDGE_LOOP('',(#770));
#167=EDGE_LOOP('',(#771));
#168=EDGE_LOOP('',(#772,#773,#774,#775));
#169=EDGE_LOOP('',(#776,#777,#778,#779));
#170=EDGE_LOOP('',(#780,#781,#782,#783));
#171=EDGE_LOOP('',(#784,#785,#786,#787));
#172=EDGE_LOOP('',(#788,#789,#790,#791));
#173=EDGE_LOOP('',(#792,#793,#794,#795));
#174=EDGE_LOOP('',(#796,#797,#798,#799));
#175=EDGE_LOOP('',(#800,#801,#802,#803));
#176=EDGE_LOOP('',(#804,#805,#806,#807));
#177=EDGE_LOOP('',(#808,#809,#810,#811));
#178=EDGE_LOOP('',(#812,#813,#814,#815));
#179=EDGE_LOOP('',(#816,#817,#818,#819));
#180=EDGE_LOOP('',(#820));
#181=EDGE_LOOP('',(#821));
#182=EDGE_LOOP('',(#822,#823,#824,#825));
#183=EDGE_LOOP('',(#826,#827,#828,#829));
#184=EDGE_LOOP('',(#830));
#185=EDGE_LOOP('',(#831));
#186=EDGE_LOOP('',(#832,#833,#834,#835));
#187=EDGE_LOOP('',(#836,#837,#838,#839));
#188=EDGE_LOOP('',(#840));
#189=EDGE_LOOP('',(#841));
#190=EDGE_LOOP('',(#842,#843,#844,#845));
#191=EDGE_LOOP('',(#846,#847,#848,#849));
#192=EDGE_LOOP('',(#850));
#193=EDGE_LOOP('',(#851));
#194=EDGE_LOOP('',(#852,#853,#854,#855));
#195=EDGE_LOOP('',(#856,#857,#858,#859));
#196=EDGE_LOOP('',(#860,#861,#862,#863));
#197=EDGE_LOOP('',(#864,#865,#866,#867));
#198=EDGE_LOOP('',(#868,#869,#870,#871));
#199=EDGE_LOOP('',(#872,#873,#874,#875));
#200=EDGE_LOOP('',(#876,#877,#878,#879));
#201=EDGE_LOOP('',(#880,#881,#882,#883));
#202=EDGE_LOOP('',(#884,#885,#886,#887));
#203=EDGE_LOOP('',(#888,#889,#890,#891));
#204=EDGE_LOOP('',(#892));
#205=EDGE_LOOP('',(#893));
#206=EDGE_LOOP('',(#894));
#207=EDGE_LOOP('',(#895));
#208=EDGE_LOOP('',(#896));
#209=EDGE_LOOP('',(#897));
#210=EDGE_LOOP('',(#898));
#211=EDGE_LOOP('',(#899));
#212=EDGE_LOOP('',(#900,#901,#902,#903,#904));
#213=EDGE_LOOP('',(#905));
#214=EDGE_LOOP('',(#906));
#215=EDGE_LOOP('',(#907,#908,#909,#910,#911));
#216=EDGE_LOOP('',(#912,#913,#914,#915,#916));
#217=EDGE_LOOP('',(#917,#918,#919,#920,#921));
#218=EDGE_LOOP('',(#922,#923,#924,#925));
#219=EDGE_LOOP('',(#926,#927,#928,#929));
#220=EDGE_LOOP('',(#930,#931,#932,#933));
#221=EDGE_LOOP('',(#934,#935,#936,#937));
#222=EDGE_LOOP('',(#938,#939,#940,#941));
#223=EDGE_LOOP('',(#942,#943,#944,#945));
#224=EDGE_LOOP('',(#946,#947,#948,#949));
#225=EDGE_LOOP('',(#950,#951,#952,#953));
#226=EDGE_LOOP('',(#954,#955,#956,#957,#958,#959,#960,#961));
#227=EDGE_LOOP('',(#962,#963,#964,#965));
#228=EDGE_LOOP('',(#966,#967,#968,#969,#970,#971,#972,#973));
#229=EDGE_LOOP('',(#974,#975,#976,#977));
#230=EDGE_LOOP('',(#978,#979,#980,#981,#982,#983,#984,#985));
#231=EDGE_LOOP('',(#986));
#232=EDGE_LOOP('',(#987));
#233=EDGE_LOOP('',(#988));
#234=EDGE_LOOP('',(#989));
#235=EDGE_LOOP('',(#990));
#236=EDGE_LOOP('',(#991,#992,#993,#994,#995,#996,#997,#998));
#237=EDGE_LOOP('',(#999,#1000,#1001,#1002));
#238=EDGE_LOOP('',(#1003,#1004,#1005,#1006));
#239=EDGE_LOOP('',(#1007,#1008,#1009,#1010,#1011,#1012,#1013,#1014));
#240=EDGE_LOOP('',(#1015));
#241=EDGE_LOOP('',(#1016));
#242=LINE('',#1605,#321);
#243=LINE('',#1618,#322);
#244=LINE('',#1621,#323);
#245=LINE('',#1627,#324);
#246=LINE('',#1630,#325);
#247=LINE('',#1632,#326);
#248=LINE('',#1633,#327);
#249=LINE('',#1635,#328);
#250=LINE('',#1638,#329);
#251=LINE('',#1642,#330);
#252=LINE('',#1646,#331);
#253=LINE('',#1650,#332);
#254=LINE('',#1654,#333);
#255=LINE('',#1658,#334);
#256=LINE('',#1662,#335);
#257=LINE('',#1666,#336);
#258=LINE('',#1670,#337);
#259=LINE('',#1674,#338);
#260=LINE('',#1677,#339);
#261=LINE('',#1692,#340);
#262=LINE('',#1693,#341);
#263=LINE('',#1696,#342);
#264=LINE('',#1699,#343);
#265=LINE('',#1701,#344);
#266=LINE('',#1703,#345);
#267=LINE('',#1708,#346);
#268=LINE('',#1709,#347);
#269=LINE('',#1712,#348);
#270=LINE('',#1715,#349);
#271=LINE('',#1717,#350);
#272=LINE('',#1719,#351);
#273=LINE('',#1724,#352);
#274=LINE('',#1725,#353);
#275=LINE('',#1728,#354);
#276=LINE('',#1731,#355);
#277=LINE('',#1733,#356);
#278=LINE('',#1735,#357);
#279=LINE('',#1744,#358);
#280=LINE('',#1747,#359);
#281=LINE('',#1757,#360);
#282=LINE('',#1760,#361);
#283=LINE('',#1770,#362);
#284=LINE('',#1773,#363);
#285=LINE('',#1783,#364);
#286=LINE('',#1786,#365);
#287=LINE('',#1790,#366);
#288=LINE('',#1794,#367);
#289=LINE('',#1798,#368);
#290=LINE('',#1802,#369);
#291=LINE('',#1806,#370);
#292=LINE('',#1810,#371);
#293=LINE('',#1814,#372);
#294=LINE('',#1818,#373);
#295=LINE('',#1838,#374);
#296=LINE('',#1846,#375);
#297=LINE('',#1850,#376);
#298=LINE('',#1854,#377);
#299=LINE('',#1858,#378);
#300=LINE('',#1860,#379);
#301=LINE('',#1861,#380);
#302=LINE('',#1865,#381);
#303=LINE('',#1870,#382);
#304=LINE('',#1872,#383);
#305=LINE('',#1873,#384);
#306=LINE('',#1877,#385);
#307=LINE('',#1882,#386);
#308=LINE('',#1884,#387);
#309=LINE('',#1885,#388);
#310=LINE('',#1889,#389);
#311=LINE('',#1893,#390);
#312=LINE('',#1894,#391);
#313=LINE('',#1896,#392);
#314=LINE('',#1897,#393);
#315=LINE('',#1899,#394);
#316=LINE('',#1901,#395);
#317=LINE('',#1903,#396);
#318=LINE('',#1906,#397);
#319=LINE('',#1908,#398);
#320=LINE('',#1910,#399);
#321=VECTOR('',#1251,1.84262079501296);
#322=VECTOR('',#1266,6.);
#323=VECTOR('',#1269,10.);
#324=VECTOR('',#1274,6.);
#325=VECTOR('',#1277,10.);
#326=VECTOR('',#1280,10.);
#327=VECTOR('',#1281,10.);
#328=VECTOR('',#1284,10.);
#329=VECTOR('',#1287,10.);
#330=VECTOR('',#1290,10.);
#331=VECTOR('',#1293,10.);
#332=VECTOR('',#1296,10.);
#333=VECTOR('',#1299,10.);
#334=VECTOR('',#1302,10.);
#335=VECTOR('',#1305,10.);
#336=VECTOR('',#1308,10.);
#337=VECTOR('',#1311,10.);
#338=VECTOR('',#1314,10.);
#339=VECTOR('',#1317,10.);
#340=VECTOR('',#1332,6.);
#341=VECTOR('',#1333,10.);
#342=VECTOR('',#1336,6.);
#343=VECTOR('',#1339,10.);
#344=VECTOR('',#1342,10.);
#345=VECTOR('',#1345,10.);
#346=VECTOR('',#1350,6.);
#347=VECTOR('',#1351,10.);
#348=VECTOR('',#1354,6.);
#349=VECTOR('',#1357,10.);
#350=VECTOR('',#1360,10.);
#351=VECTOR('',#1363,10.);
#352=VECTOR('',#1368,6.);
#353=VECTOR('',#1369,10.);
#354=VECTOR('',#1372,6.);
#355=VECTOR('',#1375,10.);
#356=VECTOR('',#1378,10.);
#357=VECTOR('',#1381,10.);
#358=VECTOR('',#1392,5.5);
#359=VECTOR('',#1395,3.3);
#360=VECTOR('',#1408,5.5);
#361=VECTOR('',#1411,3.3);
#362=VECTOR('',#1424,5.5);
#363=VECTOR('',#1427,3.3);
#364=VECTOR('',#1440,5.5);
#365=VECTOR('',#1443,3.3);
#366=VECTOR('',#1448,7.85);
#367=VECTOR('',#1453,7.5);
#368=VECTOR('',#1458,7.85000000000001);
#369=VECTOR('',#1463,7.5);
#370=VECTOR('',#1468,7.85000000000001);
#371=VECTOR('',#1473,7.5);
#372=VECTOR('',#1478,7.85);
#373=VECTOR('',#1483,7.5);
#374=VECTOR('',#1512,34.);
#375=VECTOR('',#1523,40.5249319811555);
#376=VECTOR('',#1526,10.);
#377=VECTOR('',#1529,10.);
#378=VECTOR('',#1534,10.);
#379=VECTOR('',#1535,10.);
#380=VECTOR('',#1536,10.);
#381=VECTOR('',#1539,10.);
#382=VECTOR('',#1546,10.);
#383=VECTOR('',#1547,10.);
#384=VECTOR('',#1548,10.);
#385=VECTOR('',#1551,10.);
#386=VECTOR('',#1558,10.);
#387=VECTOR('',#1559,10.);
#388=VECTOR('',#1560,10.);
#389=VECTOR('',#1563,10.);
#390=VECTOR('',#1570,10.);
#391=VECTOR('',#1571,10.);
#392=VECTOR('',#1574,10.);
#393=VECTOR('',#1575,10.);
#394=VECTOR('',#1578,10.);
#395=VECTOR('',#1581,10.);
#396=VECTOR('',#1584,10.);
#397=VECTOR('',#1589,10.);
#398=VECTOR('',#1592,10.);
#399=VECTOR('',#1595,10.);
#400=CIRCLE('',#1109,2.18524159002592);
#401=CIRCLE('',#1110,1.5);
#402=CIRCLE('',#1111,1.5);
#403=CIRCLE('',#1113,7.48331477354797);
#404=CIRCLE('',#1114,15.);
#405=CIRCLE('',#1116,6.);
#406=CIRCLE('',#1117,6.);
#407=CIRCLE('',#1119,6.);
#408=CIRCLE('',#1120,6.);
#409=CIRCLE('',#1124,10.);
#410=CIRCLE('',#1125,6.);
#411=CIRCLE('',#1126,6.);
#412=CIRCLE('',#1127,10.);
#413=CIRCLE('',#1128,6.);
#414=CIRCLE('',#1129,6.);
#415=CIRCLE('',#1130,10.);
#416=CIRCLE('',#1131,6.);
#417=CIRCLE('',#1132,6.);
#418=CIRCLE('',#1133,10.);
#419=CIRCLE('',#1134,8.1);
#420=CIRCLE('',#1135,8.1);
#421=CIRCLE('',#1136,40.5249319811555);
#422=CIRCLE('',#1137,8.1);
#423=CIRCLE('',#1138,8.1);
#424=CIRCLE('',#1140,6.);
#425=CIRCLE('',#1142,6.);
#426=CIRCLE('',#1146,6.);
#427=CIRCLE('',#1148,6.);
#428=CIRCLE('',#1152,6.);
#429=CIRCLE('',#1154,6.);
#430=CIRCLE('',#1158,5.5);
#431=CIRCLE('',#1159,3.3);
#432=CIRCLE('',#1161,5.5);
#433=CIRCLE('',#1163,3.3);
#434=CIRCLE('',#1165,5.5);
#435=CIRCLE('',#1166,3.3);
#436=CIRCLE('',#1168,5.5);
#437=CIRCLE('',#1170,3.3);
#438=CIRCLE('',#1172,5.5);
#439=CIRCLE('',#1173,3.3);
#440=CIRCLE('',#1175,5.5);
#441=CIRCLE('',#1177,3.3);
#442=CIRCLE('',#1179,5.5);
#443=CIRCLE('',#1180,3.3);
#444=CIRCLE('',#1182,5.5);
#445=CIRCLE('',#1184,3.3);
#446=CIRCLE('',#1186,7.6);
#447=CIRCLE('',#1188,7.6);
#448=CIRCLE('',#1190,7.60000000000001);
#449=CIRCLE('',#1192,7.60000000000001);
#450=CIRCLE('',#1194,7.60000000000001);
#451=CIRCLE('',#1196,7.60000000000001);
#452=CIRCLE('',#1198,7.6);
#453=CIRCLE('',#1200,7.6);
#454=CIRCLE('',#1206,34.9163311740174);
#455=CIRCLE('',#1207,1.);
#456=CIRCLE('',#1208,33.9201364759257);
#457=CIRCLE('',#1209,33.9201364759257);
#458=CIRCLE('',#1211,39.4336234800863);
#459=CIRCLE('',#1213,33.8250226729482);
#460=CIRCLE('',#1215,40.429818178178);
#461=CIRCLE('',#1216,40.429818178178);
#462=CIRCLE('',#1217,1.);
#463=CIRCLE('',#1220,10.);
#464=CIRCLE('',#1221,9.);
#465=CIRCLE('',#1224,10.);
#466=CIRCLE('',#1225,9.);
#467=CIRCLE('',#1228,10.);
#468=CIRCLE('',#1229,9.);
#469=CIRCLE('',#1232,10.);
#470=CIRCLE('',#1233,9.);
#471=VERTEX_POINT('',#1602);
#472=VERTEX_POINT('',#1604);
#473=VERTEX_POINT('',#1606);
#474=VERTEX_POINT('',#1610);
#475=VERTEX_POINT('',#1614);
#476=VERTEX_POINT('',#1615);
#477=VERTEX_POINT('',#1617);
#478=VERTEX_POINT('',#1619);
#479=VERTEX_POINT('',#1623);
#480=VERTEX_POINT('',#1624);
#481=VERTEX_POINT('',#1626);
#482=VERTEX_POINT('',#1628);
#483=VERTEX_POINT('',#1637);
#484=VERTEX_POINT('',#1639);
#485=VERTEX_POINT('',#1641);
#486=VERTEX_POINT('',#1643);
#487=VERTEX_POINT('',#1645);
#488=VERTEX_POINT('',#1647);
#489=VERTEX_POINT('',#1649);
#490=VERTEX_POINT('',#1651);
#491=VERTEX_POINT('',#1653);
#492=VERTEX_POINT('',#1655);
#493=VERTEX_POINT('',#1657);
#494=VERTEX_POINT('',#1659);
#495=VERTEX_POINT('',#1661);
#496=VERTEX_POINT('',#1663);
#497=VERTEX_POINT('',#1665);
#498=VERTEX_POINT('',#1667);
#499=VERTEX_POINT('',#1669);
#500=VERTEX_POINT('',#1671);
#501=VERTEX_POINT('',#1673);
#502=VERTEX_POINT('',#1675);
#503=VERTEX_POINT('',#1678);
#504=VERTEX_POINT('',#1680);
#505=VERTEX_POINT('',#1682);
#506=VERTEX_POINT('',#1684);
#507=VERTEX_POINT('',#1686);
#508=VERTEX_POINT('',#1689);
#509=VERTEX_POINT('',#1690);
#510=VERTEX_POINT('',#1695);
#511=VERTEX_POINT('',#1697);
#512=VERTEX_POINT('',#1705);
#513=VERTEX_POINT('',#1706);
#514=VERTEX_POINT('',#1711);
#515=VERTEX_POINT('',#1713);
#516=VERTEX_POINT('',#1721);
#517=VERTEX_POINT('',#1722);
#518=VERTEX_POINT('',#1727);
#519=VERTEX_POINT('',#1729);
#520=VERTEX_POINT('',#1737);
#521=VERTEX_POINT('',#1739);
#522=VERTEX_POINT('',#1742);
#523=VERTEX_POINT('',#1746);
#524=VERTEX_POINT('',#1750);
#525=VERTEX_POINT('',#1752);
#526=VERTEX_POINT('',#1755);
#527=VERTEX_POINT('',#1759);
#528=VERTEX_POINT('',#1763);
#529=VERTEX_POINT('',#1765);
#530=VERTEX_POINT('',#1768);
#531=VERTEX_POINT('',#1772);
#532=VERTEX_POINT('',#1776);
#533=VERTEX_POINT('',#1778);
#534=VERTEX_POINT('',#1781);
#535=VERTEX_POINT('',#1785);
#536=VERTEX_POINT('',#1789);
#537=VERTEX_POINT('',#1793);
#538=VERTEX_POINT('',#1797);
#539=VERTEX_POINT('',#1801);
#540=VERTEX_POINT('',#1805);
#541=VERTEX_POINT('',#1809);
#542=VERTEX_POINT('',#1813);
#543=VERTEX_POINT('',#1817);
#544=VERTEX_POINT('',#1825);
#545=VERTEX_POINT('',#1827);
#546=VERTEX_POINT('',#1829);
#547=VERTEX_POINT('',#1833);
#548=VERTEX_POINT('',#1836);
#549=VERTEX_POINT('',#1840);
#550=VERTEX_POINT('',#1841);
#551=VERTEX_POINT('',#1848);
#552=VERTEX_POINT('',#1849);
#553=VERTEX_POINT('',#1851);
#554=VERTEX_POINT('',#1853);
#555=VERTEX_POINT('',#1857);
#556=VERTEX_POINT('',#1859);
#557=VERTEX_POINT('',#1863);
#558=VERTEX_POINT('',#1864);
#559=VERTEX_POINT('',#1869);
#560=VERTEX_POINT('',#1871);
#561=VERTEX_POINT('',#1875);
#562=VERTEX_POINT('',#1876);
#563=VERTEX_POINT('',#1881);
#564=VERTEX_POINT('',#1883);
#565=VERTEX_POINT('',#1887);
#566=VERTEX_POINT('',#1888);
#567=EDGE_CURVE('',#471,#471,#400,.T.);
#568=EDGE_CURVE('',#471,#472,#242,.T.);
#569=EDGE_CURVE('',#472,#473,#401,.T.);
#570=EDGE_CURVE('',#473,#472,#402,.T.);
#571=EDGE_CURVE('',#474,#474,#403,.T.);
#572=EDGE_CURVE('',#474,#473,#404,.T.);
#573=EDGE_CURVE('',#475,#476,#405,.T.);
#574=EDGE_CURVE('',#475,#477,#243,.T.);
#575=EDGE_CURVE('',#478,#477,#406,.F.);
#576=EDGE_CURVE('',#476,#478,#244,.T.);
#577=EDGE_CURVE('',#479,#480,#407,.F.);
#578=EDGE_CURVE('',#479,#481,#245,.T.);
#579=EDGE_CURVE('',#482,#481,#408,.T.);
#580=EDGE_CURVE('',#480,#482,#246,.T.);
#581=EDGE_CURVE('',#475,#481,#247,.T.);
#582=EDGE_CURVE('',#477,#479,#248,.T.);
#583=EDGE_CURVE('',#482,#476,#249,.T.);
#584=EDGE_CURVE('',#480,#483,#250,.T.);
#585=EDGE_CURVE('',#484,#483,#409,.T.);
#586=EDGE_CURVE('',#484,#485,#251,.T.);
#587=EDGE_CURVE('',#485,#486,#410,.F.);
#588=EDGE_CURVE('',#486,#487,#252,.T.);
#589=EDGE_CURVE('',#487,#488,#411,.F.);
#590=EDGE_CURVE('',#488,#489,#253,.T.);
#591=EDGE_CURVE('',#490,#489,#412,.T.);
#592=EDGE_CURVE('',#490,#491,#254,.T.);
#593=EDGE_CURVE('',#491,#492,#413,.F.);
#594=EDGE_CURVE('',#492,#493,#255,.T.);
#595=EDGE_CURVE('',#493,#494,#414,.F.);
#596=EDGE_CURVE('',#494,#495,#256,.T.);
#597=EDGE_CURVE('',#496,#495,#415,.T.);
#598=EDGE_CURVE('',#496,#497,#257,.T.);
#599=EDGE_CURVE('',#497,#498,#416,.F.);
#600=EDGE_CURVE('',#498,#499,#258,.T.);
#601=EDGE_CURVE('',#499,#500,#417,.F.);
#602=EDGE_CURVE('',#500,#501,#259,.T.);
#603=EDGE_CURVE('',#502,#501,#418,.T.);
#604=EDGE_CURVE('',#502,#478,#260,.T.);
#605=EDGE_CURVE('',#503,#503,#419,.T.);
#606=EDGE_CURVE('',#504,#504,#420,.T.);
#607=EDGE_CURVE('',#505,#505,#421,.T.);
#608=EDGE_CURVE('',#506,#506,#422,.T.);
#609=EDGE_CURVE('',#507,#507,#423,.T.);
#610=EDGE_CURVE('',#508,#509,#424,.T.);
#611=EDGE_CURVE('',#508,#498,#261,.T.);
#612=EDGE_CURVE('',#509,#497,#262,.T.);
#613=EDGE_CURVE('',#499,#510,#263,.T.);
#614=EDGE_CURVE('',#511,#510,#425,.T.);
#615=EDGE_CURVE('',#500,#511,#264,.T.);
#616=EDGE_CURVE('',#508,#510,#265,.T.);
#617=EDGE_CURVE('',#511,#509,#266,.T.);
#618=EDGE_CURVE('',#512,#513,#426,.T.);
#619=EDGE_CURVE('',#512,#492,#267,.T.);
#620=EDGE_CURVE('',#513,#491,#268,.T.);
#621=EDGE_CURVE('',#493,#514,#269,.T.);
#622=EDGE_CURVE('',#515,#514,#427,.T.);
#623=EDGE_CURVE('',#494,#515,#270,.T.);
#624=EDGE_CURVE('',#512,#514,#271,.T.);
#625=EDGE_CURVE('',#515,#513,#272,.T.);
#626=EDGE_CURVE('',#516,#517,#428,.T.);
#627=EDGE_CURVE('',#516,#486,#273,.T.);
#628=EDGE_CURVE('',#517,#485,#274,.T.);
#629=EDGE_CURVE('',#487,#518,#275,.T.);
#630=EDGE_CURVE('',#519,#518,#429,.T.);
#631=EDGE_CURVE('',#488,#519,#276,.T.);
#632=EDGE_CURVE('',#516,#518,#277,.T.);
#633=EDGE_CURVE('',#519,#517,#278,.T.);
#634=EDGE_CURVE('',#520,#520,#430,.T.);
#635=EDGE_CURVE('',#521,#521,#431,.T.);
#636=EDGE_CURVE('',#522,#522,#432,.T.);
#637=EDGE_CURVE('',#522,#520,#279,.T.);
#638=EDGE_CURVE('',#521,#523,#280,.T.);
#639=EDGE_CURVE('',#523,#523,#433,.T.);
#640=EDGE_CURVE('',#524,#524,#434,.T.);
#641=EDGE_CURVE('',#525,#525,#435,.T.);
#642=EDGE_CURVE('',#526,#526,#436,.T.);
#643=EDGE_CURVE('',#526,#524,#281,.T.);
#644=EDGE_CURVE('',#525,#527,#282,.T.);
#645=EDGE_CURVE('',#527,#527,#437,.T.);
#646=EDGE_CURVE('',#528,#528,#438,.T.);
#647=EDGE_CURVE('',#529,#529,#439,.T.);
#648=EDGE_CURVE('',#530,#530,#440,.T.);
#649=EDGE_CURVE('',#530,#528,#283,.T.);
#650=EDGE_CURVE('',#529,#531,#284,.T.);
#651=EDGE_CURVE('',#531,#531,#441,.T.);
#652=EDGE_CURVE('',#532,#532,#442,.T.);
#653=EDGE_CURVE('',#533,#533,#443,.T.);
#654=EDGE_CURVE('',#534,#534,#444,.T.);
#655=EDGE_CURVE('',#534,#532,#285,.T.);
#656=EDGE_CURVE('',#533,#535,#286,.T.);
#657=EDGE_CURVE('',#535,#535,#445,.T.);
#658=EDGE_CURVE('',#507,#536,#287,.T.);
#659=EDGE_CURVE('',#536,#536,#446,.T.);
#660=EDGE_CURVE('',#536,#537,#288,.T.);
#661=EDGE_CURVE('',#537,#537,#447,.F.);
#662=EDGE_CURVE('',#503,#538,#289,.T.);
#663=EDGE_CURVE('',#538,#538,#448,.T.);
#664=EDGE_CURVE('',#538,#539,#290,.T.);
#665=EDGE_CURVE('',#539,#539,#449,.F.);
#666=EDGE_CURVE('',#506,#540,#291,.T.);
#667=EDGE_CURVE('',#540,#540,#450,.T.);
#668=EDGE_CURVE('',#540,#541,#292,.T.);
#669=EDGE_CURVE('',#541,#541,#451,.F.);
#670=EDGE_CURVE('',#504,#542,#293,.T.);
#671=EDGE_CURVE('',#542,#542,#452,.T.);
#672=EDGE_CURVE('',#542,#543,#294,.T.);
#673=EDGE_CURVE('',#543,#543,#453,.F.);
#674=EDGE_CURVE('',#544,#544,#454,.T.);
#675=EDGE_CURVE('',#544,#545,#455,.T.);
#676=EDGE_CURVE('',#546,#545,#456,.T.);
#677=EDGE_CURVE('',#545,#546,#457,.T.);
#678=EDGE_CURVE('',#547,#547,#458,.T.);
#679=EDGE_CURVE('',#548,#548,#459,.T.);
#680=EDGE_CURVE('',#548,#546,#295,.T.);
#681=EDGE_CURVE('',#549,#550,#460,.T.);
#682=EDGE_CURVE('',#550,#549,#461,.T.);
#683=EDGE_CURVE('',#550,#547,#462,.T.);
#684=EDGE_CURVE('',#505,#549,#296,.T.);
#685=EDGE_CURVE('',#551,#552,#297,.T.);
#686=EDGE_CURVE('',#552,#553,#463,.T.);
#687=EDGE_CURVE('',#553,#554,#298,.T.);
#688=EDGE_CURVE('',#554,#551,#464,.T.);
#689=EDGE_CURVE('',#551,#555,#299,.T.);
#690=EDGE_CURVE('',#555,#556,#300,.T.);
#691=EDGE_CURVE('',#556,#552,#301,.T.);
#692=EDGE_CURVE('',#557,#558,#302,.T.);
#693=EDGE_CURVE('',#558,#556,#465,.T.);
#694=EDGE_CURVE('',#555,#557,#466,.T.);
#695=EDGE_CURVE('',#557,#559,#303,.T.);
#696=EDGE_CURVE('',#559,#560,#304,.T.);
#697=EDGE_CURVE('',#560,#558,#305,.T.);
#698=EDGE_CURVE('',#561,#562,#306,.T.);
#699=EDGE_CURVE('',#562,#560,#467,.T.);
#700=EDGE_CURVE('',#559,#561,#468,.T.);
#701=EDGE_CURVE('',#561,#563,#307,.T.);
#702=EDGE_CURVE('',#563,#564,#308,.T.);
#703=EDGE_CURVE('',#564,#562,#309,.T.);
#704=EDGE_CURVE('',#565,#566,#310,.T.);
#705=EDGE_CURVE('',#566,#564,#469,.T.);
#706=EDGE_CURVE('',#563,#565,#470,.T.);
#707=EDGE_CURVE('',#565,#554,#311,.T.);
#708=EDGE_CURVE('',#553,#566,#312,.T.);
#709=EDGE_CURVE('',#562,#502,#313,.T.);
#710=EDGE_CURVE('',#483,#564,#314,.T.);
#711=EDGE_CURVE('',#566,#484,#315,.T.);
#712=EDGE_CURVE('',#489,#553,#316,.T.);
#713=EDGE_CURVE('',#552,#490,#317,.T.);
#714=EDGE_CURVE('',#495,#556,#318,.T.);
#715=EDGE_CURVE('',#501,#560,#319,.T.);
#716=EDGE_CURVE('',#558,#496,#320,.T.);
#717=ORIENTED_EDGE('',*,*,#567,.F.);
#718=ORIENTED_EDGE('',*,*,#568,.T.);
#719=ORIENTED_EDGE('',*,*,#569,.T.);
#720=ORIENTED_EDGE('',*,*,#570,.T.);
#721=ORIENTED_EDGE('',*,*,#568,.F.);
#722=ORIENTED_EDGE('',*,*,#571,.F.);
#723=ORIENTED_EDGE('',*,*,#572,.T.);
#724=ORIENTED_EDGE('',*,*,#569,.F.);
#725=ORIENTED_EDGE('',*,*,#570,.F.);
#726=ORIENTED_EDGE('',*,*,#572,.F.);
#727=ORIENTED_EDGE('',*,*,#573,.F.);
#728=ORIENTED_EDGE('',*,*,#574,.T.);
#729=ORIENTED_EDGE('',*,*,#575,.F.);
#730=ORIENTED_EDGE('',*,*,#576,.F.);
#731=ORIENTED_EDGE('',*,*,#577,.F.);
#732=ORIENTED_EDGE('',*,*,#578,.T.);
#733=ORIENTED_EDGE('',*,*,#579,.F.);
#734=ORIENTED_EDGE('',*,*,#580,.F.);
#735=ORIENTED_EDGE('',*,*,#574,.F.);
#736=ORIENTED_EDGE('',*,*,#581,.T.);
#737=ORIENTED_EDGE('',*,*,#578,.F.);
#738=ORIENTED_EDGE('',*,*,#582,.F.);
#739=ORIENTED_EDGE('',*,*,#573,.T.);
#740=ORIENTED_EDGE('',*,*,#583,.F.);
#741=ORIENTED_EDGE('',*,*,#579,.T.);
#742=ORIENTED_EDGE('',*,*,#581,.F.);
#743=ORIENTED_EDGE('',*,*,#575,.T.);
#744=ORIENTED_EDGE('',*,*,#582,.T.);
#745=ORIENTED_EDGE('',*,*,#577,.T.);
#746=ORIENTED_EDGE('',*,*,#584,.T.);
#747=ORIENTED_EDGE('',*,*,#585,.F.);
#748=ORIENTED_EDGE('',*,*,#586,.T.);
#749=ORIENTED_EDGE('',*,*,#587,.T.);
#750=ORIENTED_EDGE('',*,*,#588,.T.);
#751=ORIENTED_EDGE('',*,*,#589,.T.);
#752=ORIENTED_EDGE('',*,*,#590,.T.);
#753=ORIENTED_EDGE('',*,*,#591,.F.);
#754=ORIENTED_EDGE('',*,*,#592,.T.);
#755=ORIENTED_EDGE('',*,*,#593,.T.);
#756=ORIENTED_EDGE('',*,*,#594,.T.);
#757=ORIENTED_EDGE('',*,*,#595,.T.);
#758=ORIENTED_EDGE('',*,*,#596,.T.);
#759=ORIENTED_EDGE('',*,*,#597,.F.);
#760=ORIENTED_EDGE('',*,*,#598,.T.);
#761=ORIENTED_EDGE('',*,*,#599,.T.);
#762=ORIENTED_EDGE('',*,*,#600,.T.);
#763=ORIENTED_EDGE('',*,*,#601,.T.);
#764=ORIENTED_EDGE('',*,*,#602,.T.);
#765=ORIENTED_EDGE('',*,*,#603,.F.);
#766=ORIENTED_EDGE('',*,*,#604,.T.);
#767=ORIENTED_EDGE('',*,*,#605,.F.);
#768=ORIENTED_EDGE('',*,*,#606,.F.);
#769=ORIENTED_EDGE('',*,*,#607,.T.);
#770=ORIENTED_EDGE('',*,*,#608,.F.);
#771=ORIENTED_EDGE('',*,*,#609,.F.);
#772=ORIENTED_EDGE('',*,*,#610,.F.);
#773=ORIENTED_EDGE('',*,*,#611,.T.);
#774=ORIENTED_EDGE('',*,*,#599,.F.);
#775=ORIENTED_EDGE('',*,*,#612,.F.);
#776=ORIENTED_EDGE('',*,*,#601,.F.);
#777=ORIENTED_EDGE('',*,*,#613,.T.);
#778=ORIENTED_EDGE('',*,*,#614,.F.);
#779=ORIENTED_EDGE('',*,*,#615,.F.);
#780=ORIENTED_EDGE('',*,*,#611,.F.);
#781=ORIENTED_EDGE('',*,*,#616,.T.);
#782=ORIENTED_EDGE('',*,*,#613,.F.);
#783=ORIENTED_EDGE('',*,*,#600,.F.);
#784=ORIENTED_EDGE('',*,*,#610,.T.);
#785=ORIENTED_EDGE('',*,*,#617,.F.);
#786=ORIENTED_EDGE('',*,*,#614,.T.);
#787=ORIENTED_EDGE('',*,*,#616,.F.);
#788=ORIENTED_EDGE('',*,*,#618,.F.);
#789=ORIENTED_EDGE('',*,*,#619,.T.);
#790=ORIENTED_EDGE('',*,*,#593,.F.);
#791=ORIENTED_EDGE('',*,*,#620,.F.);
#792=ORIENTED_EDGE('',*,*,#595,.F.);
#793=ORIENTED_EDGE('',*,*,#621,.T.);
#794=ORIENTED_EDGE('',*,*,#622,.F.);
#795=ORIENTED_EDGE('',*,*,#623,.F.);
#796=ORIENTED_EDGE('',*,*,#619,.F.);
#797=ORIENTED_EDGE('',*,*,#624,.T.);
#798=ORIENTED_EDGE('',*,*,#621,.F.);
#799=ORIENTED_EDGE('',*,*,#594,.F.);
#800=ORIENTED_EDGE('',*,*,#618,.T.);
#801=ORIENTED_EDGE('',*,*,#625,.F.);
#802=ORIENTED_EDGE('',*,*,#622,.T.);
#803=ORIENTED_EDGE('',*,*,#624,.F.);
#804=ORIENTED_EDGE('',*,*,#626,.F.);
#805=ORIENTED_EDGE('',*,*,#627,.T.);
#806=ORIENTED_EDGE('',*,*,#587,.F.);
#807=ORIENTED_EDGE('',*,*,#628,.F.);
#808=ORIENTED_EDGE('',*,*,#589,.F.);
#809=ORIENTED_EDGE('',*,*,#629,.T.);
#810=ORIENTED_EDGE('',*,*,#630,.F.);
#811=ORIENTED_EDGE('',*,*,#631,.F.);
#812=ORIENTED_EDGE('',*,*,#627,.F.);
#813=ORIENTED_EDGE('',*,*,#632,.T.);
#814=ORIENTED_EDGE('',*,*,#629,.F.);
#815=ORIENTED_EDGE('',*,*,#588,.F.);
#816=ORIENTED_EDGE('',*,*,#626,.T.);
#817=ORIENTED_EDGE('',*,*,#633,.F.);
#818=ORIENTED_EDGE('',*,*,#630,.T.);
#819=ORIENTED_EDGE('',*,*,#632,.F.);
#820=ORIENTED_EDGE('',*,*,#634,.F.);
#821=ORIENTED_EDGE('',*,*,#635,.T.);
#822=ORIENTED_EDGE('',*,*,#636,.F.);
#823=ORIENTED_EDGE('',*,*,#637,.T.);
#824=ORIENTED_EDGE('',*,*,#634,.T.);
#825=ORIENTED_EDGE('',*,*,#637,.F.);
#826=ORIENTED_EDGE('',*,*,#635,.F.);
#827=ORIENTED_EDGE('',*,*,#638,.T.);
#828=ORIENTED_EDGE('',*,*,#639,.F.);
#829=ORIENTED_EDGE('',*,*,#638,.F.);
#830=ORIENTED_EDGE('',*,*,#640,.F.);
#831=ORIENTED_EDGE('',*,*,#641,.T.);
#832=ORIENTED_EDGE('',*,*,#642,.F.);
#833=ORIENTED_EDGE('',*,*,#643,.T.);
#834=ORIENTED_EDGE('',*,*,#640,.T.);
#835=ORIENTED_EDGE('',*,*,#643,.F.);
#836=ORIENTED_EDGE('',*,*,#641,.F.);
#837=ORIENTED_EDGE('',*,*,#644,.T.);
#838=ORIENTED_EDGE('',*,*,#645,.F.);
#839=ORIENTED_EDGE('',*,*,#644,.F.);
#840=ORIENTED_EDGE('',*,*,#646,.F.);
#841=ORIENTED_EDGE('',*,*,#647,.T.);
#842=ORIENTED_EDGE('',*,*,#648,.F.);
#843=ORIENTED_EDGE('',*,*,#649,.T.);
#844=ORIENTED_EDGE('',*,*,#646,.T.);
#845=ORIENTED_EDGE('',*,*,#649,.F.);
#846=ORIENTED_EDGE('',*,*,#647,.F.);
#847=ORIENTED_EDGE('',*,*,#650,.T.);
#848=ORIENTED_EDGE('',*,*,#651,.F.);
#849=ORIENTED_EDGE('',*,*,#650,.F.);
#850=ORIENTED_EDGE('',*,*,#652,.F.);
#851=ORIENTED_EDGE('',*,*,#653,.T.);
#852=ORIENTED_EDGE('',*,*,#654,.F.);
#853=ORIENTED_EDGE('',*,*,#655,.T.);
#854=ORIENTED_EDGE('',*,*,#652,.T.);
#855=ORIENTED_EDGE('',*,*,#655,.F.);
#856=ORIENTED_EDGE('',*,*,#653,.F.);
#857=ORIENTED_EDGE('',*,*,#656,.T.);
#858=ORIENTED_EDGE('',*,*,#657,.F.);
#859=ORIENTED_EDGE('',*,*,#656,.F.);
#860=ORIENTED_EDGE('',*,*,#609,.T.);
#861=ORIENTED_EDGE('',*,*,#658,.T.);
#862=ORIENTED_EDGE('',*,*,#659,.T.);
#863=ORIENTED_EDGE('',*,*,#658,.F.);
#864=ORIENTED_EDGE('',*,*,#659,.F.);
#865=ORIENTED_EDGE('',*,*,#660,.T.);
#866=ORIENTED_EDGE('',*,*,#661,.T.);
#867=ORIENTED_EDGE('',*,*,#660,.F.);
#868=ORIENTED_EDGE('',*,*,#605,.T.);
#869=ORIENTED_EDGE('',*,*,#662,.T.);
#870=ORIENTED_EDGE('',*,*,#663,.T.);
#871=ORIENTED_EDGE('',*,*,#662,.F.);
#872=ORIENTED_EDGE('',*,*,#663,.F.);
#873=ORIENTED_EDGE('',*,*,#664,.T.);
#874=ORIENTED_EDGE('',*,*,#665,.T.);
#875=ORIENTED_EDGE('',*,*,#664,.F.);
#876=ORIENTED_EDGE('',*,*,#608,.T.);
#877=ORIENTED_EDGE('',*,*,#666,.T.);
#878=ORIENTED_EDGE('',*,*,#667,.T.);
#879=ORIENTED_EDGE('',*,*,#666,.F.);
#880=ORIENTED_EDGE('',*,*,#667,.F.);
#881=ORIENTED_EDGE('',*,*,#668,.T.);
#882=ORIENTED_EDGE('',*,*,#669,.T.);
#883=ORIENTED_EDGE('',*,*,#668,.F.);
#884=ORIENTED_EDGE('',*,*,#606,.T.);
#885=ORIENTED_EDGE('',*,*,#670,.T.);
#886=ORIENTED_EDGE('',*,*,#671,.T.);
#887=ORIENTED_EDGE('',*,*,#670,.F.);
#888=ORIENTED_EDGE('',*,*,#671,.F.);
#889=ORIENTED_EDGE('',*,*,#672,.T.);
#890=ORIENTED_EDGE('',*,*,#673,.T.);
#891=ORIENTED_EDGE('',*,*,#672,.F.);
#892=ORIENTED_EDGE('',*,*,#661,.F.);
#893=ORIENTED_EDGE('',*,*,#651,.T.);
#894=ORIENTED_EDGE('',*,*,#669,.F.);
#895=ORIENTED_EDGE('',*,*,#657,.T.);
#896=ORIENTED_EDGE('',*,*,#673,.F.);
#897=ORIENTED_EDGE('',*,*,#639,.T.);
#898=ORIENTED_EDGE('',*,*,#665,.F.);
#899=ORIENTED_EDGE('',*,*,#645,.T.);
#900=ORIENTED_EDGE('',*,*,#674,.F.);
#901=ORIENTED_EDGE('',*,*,#675,.T.);
#902=ORIENTED_EDGE('',*,*,#676,.F.);
#903=ORIENTED_EDGE('',*,*,#677,.F.);
#904=ORIENTED_EDGE('',*,*,#675,.F.);
#905=ORIENTED_EDGE('',*,*,#678,.T.);
#906=ORIENTED_EDGE('',*,*,#674,.T.);
#907=ORIENTED_EDGE('',*,*,#679,.F.);
#908=ORIENTED_EDGE('',*,*,#680,.T.);
#909=ORIENTED_EDGE('',*,*,#676,.T.);
#910=ORIENTED_EDGE('',*,*,#677,.T.);
#911=ORIENTED_EDGE('',*,*,#680,.F.);
#912=ORIENTED_EDGE('',*,*,#681,.F.);
#913=ORIENTED_EDGE('',*,*,#682,.F.);
#914=ORIENTED_EDGE('',*,*,#683,.T.);
#915=ORIENTED_EDGE('',*,*,#678,.F.);
#916=ORIENTED_EDGE('',*,*,#683,.F.);
#917=ORIENTED_EDGE('',*,*,#607,.F.);
#918=ORIENTED_EDGE('',*,*,#684,.T.);
#919=ORIENTED_EDGE('',*,*,#681,.T.);
#920=ORIENTED_EDGE('',*,*,#682,.T.);
#921=ORIENTED_EDGE('',*,*,#684,.F.);
#922=ORIENTED_EDGE('',*,*,#685,.T.);
#923=ORIENTED_EDGE('',*,*,#686,.T.);
#924=ORIENTED_EDGE('',*,*,#687,.T.);
#925=ORIENTED_EDGE('',*,*,#688,.T.);
#926=ORIENTED_EDGE('',*,*,#685,.F.);
#927=ORIENTED_EDGE('',*,*,#689,.T.);
#928=ORIENTED_EDGE('',*,*,#690,.T.);
#929=ORIENTED_EDGE('',*,*,#691,.T.);
#930=ORIENTED_EDGE('',*,*,#692,.T.);
#931=ORIENTED_EDGE('',*,*,#693,.T.);
#932=ORIENTED_EDGE('',*,*,#690,.F.);
#933=ORIENTED_EDGE('',*,*,#694,.T.);
#934=ORIENTED_EDGE('',*,*,#692,.F.);
#935=ORIENTED_EDGE('',*,*,#695,.T.);
#936=ORIENTED_EDGE('',*,*,#696,.T.);
#937=ORIENTED_EDGE('',*,*,#697,.T.);
#938=ORIENTED_EDGE('',*,*,#698,.T.);
#939=ORIENTED_EDGE('',*,*,#699,.T.);
#940=ORIENTED_EDGE('',*,*,#696,.F.);
#941=ORIENTED_EDGE('',*,*,#700,.T.);
#942=ORIENTED_EDGE('',*,*,#698,.F.);
#943=ORIENTED_EDGE('',*,*,#701,.T.);
#944=ORIENTED_EDGE('',*,*,#702,.T.);
#945=ORIENTED_EDGE('',*,*,#703,.T.);
#946=ORIENTED_EDGE('',*,*,#704,.T.);
#947=ORIENTED_EDGE('',*,*,#705,.T.);
#948=ORIENTED_EDGE('',*,*,#702,.F.);
#949=ORIENTED_EDGE('',*,*,#706,.T.);
#950=ORIENTED_EDGE('',*,*,#704,.F.);
#951=ORIENTED_EDGE('',*,*,#707,.T.);
#952=ORIENTED_EDGE('',*,*,#687,.F.);
#953=ORIENTED_EDGE('',*,*,#708,.T.);
#954=ORIENTED_EDGE('',*,*,#576,.T.);
#955=ORIENTED_EDGE('',*,*,#604,.F.);
#956=ORIENTED_EDGE('',*,*,#709,.F.);
#957=ORIENTED_EDGE('',*,*,#703,.F.);
#958=ORIENTED_EDGE('',*,*,#710,.F.);
#959=ORIENTED_EDGE('',*,*,#584,.F.);
#960=ORIENTED_EDGE('',*,*,#580,.T.);
#961=ORIENTED_EDGE('',*,*,#583,.T.);
#962=ORIENTED_EDGE('',*,*,#705,.F.);
#963=ORIENTED_EDGE('',*,*,#711,.T.);
#964=ORIENTED_EDGE('',*,*,#585,.T.);
#965=ORIENTED_EDGE('',*,*,#710,.T.);
#966=ORIENTED_EDGE('',*,*,#628,.T.);
#967=ORIENTED_EDGE('',*,*,#586,.F.);
#968=ORIENTED_EDGE('',*,*,#711,.F.);
#969=ORIENTED_EDGE('',*,*,#708,.F.);
#970=ORIENTED_EDGE('',*,*,#712,.F.);
#971=ORIENTED_EDGE('',*,*,#590,.F.);
#972=ORIENTED_EDGE('',*,*,#631,.T.);
#973=ORIENTED_EDGE('',*,*,#633,.T.);
#974=ORIENTED_EDGE('',*,*,#686,.F.);
#975=ORIENTED_EDGE('',*,*,#713,.T.);
#976=ORIENTED_EDGE('',*,*,#591,.T.);
#977=ORIENTED_EDGE('',*,*,#712,.T.);
#978=ORIENTED_EDGE('',*,*,#688,.F.);
#979=ORIENTED_EDGE('',*,*,#707,.F.);
#980=ORIENTED_EDGE('',*,*,#706,.F.);
#981=ORIENTED_EDGE('',*,*,#701,.F.);
#982=ORIENTED_EDGE('',*,*,#700,.F.);
#983=ORIENTED_EDGE('',*,*,#695,.F.);
#984=ORIENTED_EDGE('',*,*,#694,.F.);
#985=ORIENTED_EDGE('',*,*,#689,.F.);
#986=ORIENTED_EDGE('',*,*,#571,.T.);
#987=ORIENTED_EDGE('',*,*,#636,.T.);
#988=ORIENTED_EDGE('',*,*,#642,.T.);
#989=ORIENTED_EDGE('',*,*,#648,.T.);
#990=ORIENTED_EDGE('',*,*,#654,.T.);
#991=ORIENTED_EDGE('',*,*,#620,.T.);
#992=ORIENTED_EDGE('',*,*,#592,.F.);
#993=ORIENTED_EDGE('',*,*,#713,.F.);
#994=ORIENTED_EDGE('',*,*,#691,.F.);
#995=ORIENTED_EDGE('',*,*,#714,.F.);
#996=ORIENTED_EDGE('',*,*,#596,.F.);
#997=ORIENTED_EDGE('',*,*,#623,.T.);
#998=ORIENTED_EDGE('',*,*,#625,.T.);
#999=ORIENTED_EDGE('',*,*,#699,.F.);
#1000=ORIENTED_EDGE('',*,*,#709,.T.);
#1001=ORIENTED_EDGE('',*,*,#603,.T.);
#1002=ORIENTED_EDGE('',*,*,#715,.T.);
#1003=ORIENTED_EDGE('',*,*,#693,.F.);
#1004=ORIENTED_EDGE('',*,*,#716,.T.);
#1005=ORIENTED_EDGE('',*,*,#597,.T.);
#1006=ORIENTED_EDGE('',*,*,#714,.T.);
#1007=ORIENTED_EDGE('',*,*,#612,.T.);
#1008=ORIENTED_EDGE('',*,*,#598,.F.);
#1009=ORIENTED_EDGE('',*,*,#716,.F.);
#1010=ORIENTED_EDGE('',*,*,#697,.F.);
#1011=ORIENTED_EDGE('',*,*,#715,.F.);
#1012=ORIENTED_EDGE('',*,*,#602,.F.);
#1013=ORIENTED_EDGE('',*,*,#615,.T.);
#1014=ORIENTED_EDGE('',*,*,#617,.T.);
#1015=ORIENTED_EDGE('',*,*,#679,.T.);
#1016=ORIENTED_EDGE('',*,*,#567,.T.);
#1017=CONICAL_SURFACE('',#1108,1.84262079501296,0.0523598775598301);
#1018=CONICAL_SURFACE('',#1185,7.85,0.785398163397447);
#1019=CONICAL_SURFACE('',#1189,7.85,0.785398163397447);
#1020=CONICAL_SURFACE('',#1193,7.85,0.785398163397447);
#1021=CONICAL_SURFACE('',#1197,7.85,0.785398163397447);
#1022=CONICAL_SURFACE('',#1212,34.,0.0872664625997165);
#1023=CONICAL_SURFACE('',#1218,40.5249319811555,0.0872664625997165);
#1024=CONICAL_SURFACE('',#1219,9.5,0.785398163397446);
#1025=CONICAL_SURFACE('',#1223,9.5,0.785398163397446);
#1026=CONICAL_SURFACE('',#1227,9.5,0.785398163397446);
#1027=CONICAL_SURFACE('',#1231,9.5,0.785398163397446);
#1028=ADVANCED_FACE('',(#90),#1017,.F.);
#1029=ADVANCED_FACE('',(#91),#89,.F.);
#1030=ADVANCED_FACE('',(#92),#65,.F.);
#1031=ADVANCED_FACE('',(#93),#66,.F.);
#1032=ADVANCED_FACE('',(#94),#37,.F.);
#1033=ADVANCED_FACE('',(#95),#38,.F.);
#1034=ADVANCED_FACE('',(#96,#17,#18,#19,#20,#21),#39,.F.);
#1035=ADVANCED_FACE('',(#97),#67,.F.);
#1036=ADVANCED_FACE('',(#98),#68,.F.);
#1037=ADVANCED_FACE('',(#99),#40,.F.);
#1038=ADVANCED_FACE('',(#100),#41,.F.);
#1039=ADVANCED_FACE('',(#101),#69,.F.);
#1040=ADVANCED_FACE('',(#102),#70,.F.);
#1041=ADVANCED_FACE('',(#103),#42,.F.);
#1042=ADVANCED_FACE('',(#104),#43,.F.);
#1043=ADVANCED_FACE('',(#105),#71,.F.);
#1044=ADVANCED_FACE('',(#106),#72,.F.);
#1045=ADVANCED_FACE('',(#107),#44,.F.);
#1046=ADVANCED_FACE('',(#108),#45,.F.);
#1047=ADVANCED_FACE('',(#109,#22),#46,.F.);
#1048=ADVANCED_FACE('',(#110),#73,.F.);
#1049=ADVANCED_FACE('',(#111),#74,.F.);
#1050=ADVANCED_FACE('',(#112,#23),#47,.F.);
#1051=ADVANCED_FACE('',(#113),#75,.F.);
#1052=ADVANCED_FACE('',(#114),#76,.F.);
#1053=ADVANCED_FACE('',(#115,#24),#48,.F.);
#1054=ADVANCED_FACE('',(#116),#77,.F.);
#1055=ADVANCED_FACE('',(#117),#78,.F.);
#1056=ADVANCED_FACE('',(#118,#25),#49,.F.);
#1057=ADVANCED_FACE('',(#119),#79,.F.);
#1058=ADVANCED_FACE('',(#120),#80,.F.);
#1059=ADVANCED_FACE('',(#121),#1018,.F.);
#1060=ADVANCED_FACE('',(#122),#81,.F.);
#1061=ADVANCED_FACE('',(#123),#1019,.F.);
#1062=ADVANCED_FACE('',(#124),#82,.F.);
#1063=ADVANCED_FACE('',(#125),#1020,.F.);
#1064=ADVANCED_FACE('',(#126),#83,.F.);
#1065=ADVANCED_FACE('',(#127),#1021,.F.);
#1066=ADVANCED_FACE('',(#128),#84,.F.);
#1067=ADVANCED_FACE('',(#129,#26),#50,.F.);
#1068=ADVANCED_FACE('',(#130,#27),#51,.F.);
#1069=ADVANCED_FACE('',(#131,#28),#52,.F.);
#1070=ADVANCED_FACE('',(#132,#29),#53,.F.);
#1071=ADVANCED_FACE('',(#133),#15,.F.);
#1072=ADVANCED_FACE('',(#134,#30),#54,.F.);
#1073=ADVANCED_FACE('',(#135),#1022,.T.);
#1074=ADVANCED_FACE('',(#136),#16,.F.);
#1075=ADVANCED_FACE('',(#137),#1023,.F.);
#1076=ADVANCED_FACE('',(#138),#1024,.T.);
#1077=ADVANCED_FACE('',(#139),#55,.T.);
#1078=ADVANCED_FACE('',(#140),#1025,.T.);
#1079=ADVANCED_FACE('',(#141),#56,.T.);
#1080=ADVANCED_FACE('',(#142),#1026,.T.);
#1081=ADVANCED_FACE('',(#143),#57,.T.);
#1082=ADVANCED_FACE('',(#144),#1027,.T.);
#1083=ADVANCED_FACE('',(#145),#58,.T.);
#1084=ADVANCED_FACE('',(#146),#59,.T.);
#1085=ADVANCED_FACE('',(#147),#85,.T.);
#1086=ADVANCED_FACE('',(#148),#60,.T.);
#1087=ADVANCED_FACE('',(#149),#86,.T.);
#1088=ADVANCED_FACE('',(#150,#31,#32,#33,#34,#35),#61,.T.);
#1089=ADVANCED_FACE('',(#151),#62,.T.);
#1090=ADVANCED_FACE('',(#152),#87,.T.);
#1091=ADVANCED_FACE('',(#153),#88,.T.);
#1092=ADVANCED_FACE('',(#154),#63,.T.);
#1093=ADVANCED_FACE('',(#155,#36),#64,.F.);
#1094=CLOSED_SHELL('',(#1028,#1029,#1030,#1031,#1032,#1033,#1034,#1035,
#1036,#1037,#1038,#1039,#1040,#1041,#1042,#1043,#1044,#1045,#1046,#1047,
#1048,#1049,#1050,#1051,#1052,#1053,#1054,#1055,#1056,#1057,#1058,#1059,
#1060,#1061,#1062,#1063,#1064,#1065,#1066,#1067,#1068,#1069,#1070,#1071,
#1072,#1073,#1074,#1075,#1076,#1077,#1078,#1079,#1080,#1081,#1082,#1083,
#1084,#1085,#1086,#1087,#1088,#1089,#1090,#1091,#1092,#1093));
#1095=DERIVED_UNIT_ELEMENT(#1097,1.);
#1096=DERIVED_UNIT_ELEMENT(#1918,-3.);
#1097=(
MASS_UNIT()
NAMED_UNIT(*)
SI_UNIT(.KILO.,.GRAM.)
);
#1098=DERIVED_UNIT((#1095,#1096));
#1099=MEASURE_REPRESENTATION_ITEM('density measure',
POSITIVE_RATIO_MEASURE(2700.),#1098);
#1100=PROPERTY_DEFINITION_REPRESENTATION(#1105,#1102);
#1101=PROPERTY_DEFINITION_REPRESENTATION(#1106,#1103);
#1102=REPRESENTATION('material name',(#1104),#1915);
#1103=REPRESENTATION('density',(#1099),#1915);
#1104=DESCRIPTIVE_REPRESENTATION_ITEM('Aluminum 6061','Aluminum 6061');
#1105=PROPERTY_DEFINITION('material property','material name',#1925);
#1106=PROPERTY_DEFINITION('material property','density of part',#1925);
#1107=AXIS2_PLACEMENT_3D('',#1600,#1245,#1246);
#1108=AXIS2_PLACEMENT_3D('',#1601,#1247,#1248);
#1109=AXIS2_PLACEMENT_3D('',#1603,#1249,#1250);
#1110=AXIS2_PLACEMENT_3D('',#1607,#1252,#1253);
#1111=AXIS2_PLACEMENT_3D('',#1608,#1254,#1255);
#1112=AXIS2_PLACEMENT_3D('',#1609,#1256,#1257);
#1113=AXIS2_PLACEMENT_3D('',#1611,#1258,#1259);
#1114=AXIS2_PLACEMENT_3D('',#1612,#1260,#1261);
#1115=AXIS2_PLACEMENT_3D('',#1613,#1262,#1263);
#1116=AXIS2_PLACEMENT_3D('',#1616,#1264,#1265);
#1117=AXIS2_PLACEMENT_3D('',#1620,#1267,#1268);
#1118=AXIS2_PLACEMENT_3D('',#1622,#1270,#1271);
#1119=AXIS2_PLACEMENT_3D('',#1625,#1272,#1273);
#1120=AXIS2_PLACEMENT_3D('',#1629,#1275,#1276);
#1121=AXIS2_PLACEMENT_3D('',#1631,#1278,#1279);
#1122=AXIS2_PLACEMENT_3D('',#1634,#1282,#1283);
#1123=AXIS2_PLACEMENT_3D('',#1636,#1285,#1286);
#1124=AXIS2_PLACEMENT_3D('',#1640,#1288,#1289);
#1125=AXIS2_PLACEMENT_3D('',#1644,#1291,#1292);
#1126=AXIS2_PLACEMENT_3D('',#1648,#1294,#1295);
#1127=AXIS2_PLACEMENT_3D('',#1652,#1297,#1298);
#1128=AXIS2_PLACEMENT_3D('',#1656,#1300,#1301);
#1129=AXIS2_PLACEMENT_3D('',#1660,#1303,#1304);
#1130=AXIS2_PLACEMENT_3D('',#1664,#1306,#1307);
#1131=AXIS2_PLACEMENT_3D('',#1668,#1309,#1310);
#1132=AXIS2_PLACEMENT_3D('',#1672,#1312,#1313);
#1133=AXIS2_PLACEMENT_3D('',#1676,#1315,#1316);
#1134=AXIS2_PLACEMENT_3D('',#1679,#1318,#1319);
#1135=AXIS2_PLACEMENT_3D('',#1681,#1320,#1321);
#1136=AXIS2_PLACEMENT_3D('',#1683,#1322,#1323);
#1137=AXIS2_PLACEMENT_3D('',#1685,#1324,#1325);
#1138=AXIS2_PLACEMENT_3D('',#1687,#1326,#1327);
#1139=AXIS2_PLACEMENT_3D('',#1688,#1328,#1329);
#1140=AXIS2_PLACEMENT_3D('',#1691,#1330,#1331);
#1141=AXIS2_PLACEMENT_3D('',#1694,#1334,#1335);
#1142=AXIS2_PLACEMENT_3D('',#1698,#1337,#1338);
#1143=AXIS2_PLACEMENT_3D('',#1700,#1340,#1341);
#1144=AXIS2_PLACEMENT_3D('',#1702,#1343,#1344);
#1145=AXIS2_PLACEMENT_3D('',#1704,#1346,#1347);
#1146=AXIS2_PLACEMENT_3D('',#1707,#1348,#1349);
#1147=AXIS2_PLACEMENT_3D('',#1710,#1352,#1353);
#1148=AXIS2_PLACEMENT_3D('',#1714,#1355,#1356);
#1149=AXIS2_PLACEMENT_3D('',#1716,#1358,#1359);
#1150=AXIS2_PLACEMENT_3D('',#1718,#1361,#1362);
#1151=AXIS2_PLACEMENT_3D('',#1720,#1364,#1365);
#1152=AXIS2_PLACEMENT_3D('',#1723,#1366,#1367);
#1153=AXIS2_PLACEMENT_3D('',#1726,#1370,#1371);
#1154=AXIS2_PLACEMENT_3D('',#1730,#1373,#1374);
#1155=AXIS2_PLACEMENT_3D('',#1732,#1376,#1377);
#1156=AXIS2_PLACEMENT_3D('',#1734,#1379,#1380);
#1157=AXIS2_PLACEMENT_3D('',#1736,#1382,#1383);
#1158=AXIS2_PLACEMENT_3D('',#1738,#1384,#1385);
#1159=AXIS2_PLACEMENT_3D('',#1740,#1386,#1387);
#1160=AXIS2_PLACEMENT_3D('',#1741,#1388,#1389);
#1161=AXIS2_PLACEMENT_3D('',#1743,#1390,#1391);
#1162=AXIS2_PLACEMENT_3D('',#1745,#1393,#1394);
#1163=AXIS2_PLACEMENT_3D('',#1748,#1396,#1397);
#1164=AXIS2_PLACEMENT_3D('',#1749,#1398,#1399);
#1165=AXIS2_PLACEMENT_3D('',#1751,#1400,#1401);
#1166=AXIS2_PLACEMENT_3D('',#1753,#1402,#1403);
#1167=AXIS2_PLACEMENT_3D('',#1754,#1404,#1405);
#1168=AXIS2_PLACEMENT_3D('',#1756,#1406,#1407);
#1169=AXIS2_PLACEMENT_3D('',#1758,#1409,#1410);
#1170=AXIS2_PLACEMENT_3D('',#1761,#1412,#1413);
#1171=AXIS2_PLACEMENT_3D('',#1762,#1414,#1415);
#1172=AXIS2_PLACEMENT_3D('',#1764,#1416,#1417);
#1173=AXIS2_PLACEMENT_3D('',#1766,#1418,#1419);
#1174=AXIS2_PLACEMENT_3D('',#1767,#1420,#1421);
#1175=AXIS2_PLACEMENT_3D('',#1769,#1422,#1423);
#1176=AXIS2_PLACEMENT_3D('',#1771,#1425,#1426);
#1177=AXIS2_PLACEMENT_3D('',#1774,#1428,#1429);
#1178=AXIS2_PLACEMENT_3D('',#1775,#1430,#1431);
#1179=AXIS2_PLACEMENT_3D('',#1777,#1432,#1433);
#1180=AXIS2_PLACEMENT_3D('',#1779,#1434,#1435);
#1181=AXIS2_PLACEMENT_3D('',#1780,#1436,#1437);
#1182=AXIS2_PLACEMENT_3D('',#1782,#1438,#1439);
#1183=AXIS2_PLACEMENT_3D('',#1784,#1441,#1442);
#1184=AXIS2_PLACEMENT_3D('',#1787,#1444,#1445);
#1185=AXIS2_PLACEMENT_3D('',#1788,#1446,#1447);
#1186=AXIS2_PLACEMENT_3D('',#1791,#1449,#1450);
#1187=AXIS2_PLACEMENT_3D('',#1792,#1451,#1452);
#1188=AXIS2_PLACEMENT_3D('',#1795,#1454,#1455);
#1189=AXIS2_PLACEMENT_3D('',#1796,#1456,#1457);
#1190=AXIS2_PLACEMENT_3D('',#1799,#1459,#1460);
#1191=AXIS2_PLACEMENT_3D('',#1800,#1461,#1462);
#1192=AXIS2_PLACEMENT_3D('',#1803,#1464,#1465);
#1193=AXIS2_PLACEMENT_3D('',#1804,#1466,#1467);
#1194=AXIS2_PLACEMENT_3D('',#1807,#1469,#1470);
#1195=AXIS2_PLACEMENT_3D('',#1808,#1471,#1472);
#1196=AXIS2_PLACEMENT_3D('',#1811,#1474,#1475);
#1197=AXIS2_PLACEMENT_3D('',#1812,#1476,#1477);
#1198=AXIS2_PLACEMENT_3D('',#1815,#1479,#1480);
#1199=AXIS2_PLACEMENT_3D('',#1816,#1481,#1482);
#1200=AXIS2_PLACEMENT_3D('',#1819,#1484,#1485);
#1201=AXIS2_PLACEMENT_3D('',#1820,#1486,#1487);
#1202=AXIS2_PLACEMENT_3D('',#1821,#1488,#1489);
#1203=AXIS2_PLACEMENT_3D('',#1822,#1490,#1491);
#1204=AXIS2_PLACEMENT_3D('',#1823,#1492,#1493);
#1205=AXIS2_PLACEMENT_3D('',#1824,#1494,#1495);
#1206=AXIS2_PLACEMENT_3D('',#1826,#1496,#1497);
#1207=AXIS2_PLACEMENT_3D('',#1828,#1498,#1499);
#1208=AXIS2_PLACEMENT_3D('',#1830,#1500,#1501);
#1209=AXIS2_PLACEMENT_3D('',#1831,#1502,#1503);
#1210=AXIS2_PLACEMENT_3D('',#1832,#1504,#1505);
#1211=AXIS2_PLACEMENT_3D('',#1834,#1506,#1507);
#1212=AXIS2_PLACEMENT_3D('',#1835,#1508,#1509);
#1213=AXIS2_PLACEMENT_3D('',#1837,#1510,#1511);
#1214=AXIS2_PLACEMENT_3D('',#1839,#1513,#1514);
#1215=AXIS2_PLACEMENT_3D('',#1842,#1515,#1516);
#1216=AXIS2_PLACEMENT_3D('',#1843,#1517,#1518);
#1217=AXIS2_PLACEMENT_3D('',#1844,#1519,#1520);
#1218=AXIS2_PLACEMENT_3D('',#1845,#1521,#1522);
#1219=AXIS2_PLACEMENT_3D('',#1847,#1524,#1525);
#1220=AXIS2_PLACEMENT_3D('',#1852,#1527,#1528);
#1221=AXIS2_PLACEMENT_3D('',#1855,#1530,#1531);
#1222=AXIS2_PLACEMENT_3D('',#1856,#1532,#1533);
#1223=AXIS2_PLACEMENT_3D('',#1862,#1537,#1538);
#1224=AXIS2_PLACEMENT_3D('',#1866,#1540,#1541);
#1225=AXIS2_PLACEMENT_3D('',#1867,#1542,#1543);
#1226=AXIS2_PLACEMENT_3D('',#1868,#1544,#1545);
#1227=AXIS2_PLACEMENT_3D('',#1874,#1549,#1550);
#1228=AXIS2_PLACEMENT_3D('',#1878,#1552,#1553);
#1229=AXIS2_PLACEMENT_3D('',#1879,#1554,#1555);
#1230=AXIS2_PLACEMENT_3D('',#1880,#1556,#1557);
#1231=AXIS2_PLACEMENT_3D('',#1886,#1561,#1562);
#1232=AXIS2_PLACEMENT_3D('',#1890,#1564,#1565);
#1233=AXIS2_PLACEMENT_3D('',#1891,#1566,#1567);
#1234=AXIS2_PLACEMENT_3D('',#1892,#1568,#1569);
#1235=AXIS2_PLACEMENT_3D('',#1895,#1572,#1573);
#1236=AXIS2_PLACEMENT_3D('',#1898,#1576,#1577);
#1237=AXIS2_PLACEMENT_3D('',#1900,#1579,#1580);
#1238=AXIS2_PLACEMENT_3D('',#1902,#1582,#1583);
#1239=AXIS2_PLACEMENT_3D('',#1904,#1585,#1586);
#1240=AXIS2_PLACEMENT_3D('',#1905,#1587,#1588);
#1241=AXIS2_PLACEMENT_3D('',#1907,#1590,#1591);
#1242=AXIS2_PLACEMENT_3D('',#1909,#1593,#1594);
#1243=AXIS2_PLACEMENT_3D('',#1911,#1596,#1597);
#1244=AXIS2_PLACEMENT_3D('',#1912,#1598,#1599);
#1245=DIRECTION('axis',(0.,0.,1.));
#1246=DIRECTION('refdir',(1.,0.,0.));
#1247=DIRECTION('center_axis',(0.,0.,1.));
#1248=DIRECTION('ref_axis',(-1.,0.,0.));
#1249=DIRECTION('center_axis',(0.,0.,-1.));
#1250=DIRECTION('ref_axis',(-1.,0.,0.));
#1251=DIRECTION('',(-0.052335956242944,6.40930612932373E-18,-0.998629534754574));
#1252=DIRECTION('center_axis',(0.,0.,-1.));
#1253=DIRECTION('ref_axis',(1.,0.,0.));
#1254=DIRECTION('center_axis',(0.,0.,-1.));
#1255=DIRECTION('ref_axis',(1.,0.,0.));
#1256=DIRECTION('center_axis',(6.12323399573677E-17,0.,1.));
#1257=DIRECTION('ref_axis',(1.,0.,0.));
#1258=DIRECTION('center_axis',(0.,0.,1.));
#1259=DIRECTION('ref_axis',(0.,-1.,0.));
#1260=DIRECTION('center_axis',(-1.22464679914735E-16,1.,0.));
#1261=DIRECTION('ref_axis',(-1.,-1.22464679914735E-16,0.));
#1262=DIRECTION('center_axis',(0.,0.,-1.));
#1263=DIRECTION('ref_axis',(-0.986013297183269,0.166666666666666,0.));
#1264=DIRECTION('center_axis',(0.,0.,1.));
#1265=DIRECTION('ref_axis',(-0.986013297183269,0.166666666666666,0.));
#1266=DIRECTION('',(0.,0.,1.));
#1267=DIRECTION('center_axis',(0.,0.,1.));
#1268=DIRECTION('ref_axis',(-0.986013297183269,0.166666666666666,0.));
#1269=DIRECTION('',(0.,0.,1.));
#1270=DIRECTION('center_axis',(0.,0.,1.));
#1271=DIRECTION('ref_axis',(0.986013297183269,0.166666666666666,0.));
#1272=DIRECTION('center_axis',(0.,0.,1.));
#1273=DIRECTION('ref_axis',(0.986013297183269,0.166666666666666,0.));
#1274=DIRECTION('',(0.,0.,-1.));
#1275=DIRECTION('center_axis',(0.,0.,1.));
#1276=DIRECTION('ref_axis',(0.986013297183269,0.166666666666666,0.));
#1277=DIRECTION('',(0.,0.,-1.));
#1278=DIRECTION('center_axis',(1.83697019872103E-16,1.,0.));
#1279=DIRECTION('ref_axis',(1.,-1.83697019872103E-16,0.));
#1280=DIRECTION('',(1.,-1.83697019872103E-16,0.));
#1281=DIRECTION('',(1.,-1.83697019872103E-16,0.));
#1282=DIRECTION('center_axis',(0.,0.,-1.));
#1283=DIRECTION('ref_axis',(1.83697019872103E-16,1.,0.));
#1284=DIRECTION('',(-1.,0.,0.));
#1285=DIRECTION('center_axis',(0.,0.,-1.));
#1286=DIRECTION('ref_axis',(-1.,0.,0.));
#1287=DIRECTION('',(1.,0.,0.));
#1288=DIRECTION('center_axis',(0.,0.,-1.));
#1289=DIRECTION('ref_axis',(0.707106781186547,-0.707106781186547,0.));
#1290=DIRECTION('',(0.,1.,0.));
#1291=DIRECTION('center_axis',(0.,0.,1.));
#1292=DIRECTION('ref_axis',(-0.166666666666666,-0.986013297183269,0.));
#1293=DIRECTION('',(0.,1.,0.));
#1294=DIRECTION('center_axis',(0.,0.,1.));
#1295=DIRECTION('ref_axis',(-0.166666666666666,0.986013297183269,0.));
#1296=DIRECTION('',(0.,1.,0.));
#1297=DIRECTION('center_axis',(0.,0.,-1.));
#1298=DIRECTION('ref_axis',(0.707106781186547,0.707106781186547,0.));
#1299=DIRECTION('',(-1.,0.,0.));
#1300=DIRECTION('center_axis',(0.,0.,1.));
#1301=DIRECTION('ref_axis',(0.986013297183269,-0.166666666666666,0.));
#1302=DIRECTION('',(-1.,6.12323399573677E-17,0.));
#1303=DIRECTION('center_axis',(0.,0.,1.));
#1304=DIRECTION('ref_axis',(-0.986013297183269,-0.166666666666666,0.));
#1305=DIRECTION('',(-1.,0.,0.));
#1306=DIRECTION('center_axis',(0.,0.,-1.));
#1307=DIRECTION('ref_axis',(-0.707106781186547,0.707106781186547,0.));
#1308=DIRECTION('',(0.,-1.,0.));
#1309=DIRECTION('center_axis',(0.,0.,1.));
#1310=DIRECTION('ref_axis',(0.166666666666666,0.986013297183269,0.));
#1311=DIRECTION('',(-1.22464679914735E-16,-1.,0.));
#1312=DIRECTION('center_axis',(0.,0.,1.));
#1313=DIRECTION('ref_axis',(0.166666666666669,-0.986013297183269,0.));
#1314=DIRECTION('',(0.,-1.,0.));
#1315=DIRECTION('center_axis',(0.,0.,-1.));
#1316=DIRECTION('ref_axis',(-0.707106781186547,-0.707106781186547,0.));
#1317=DIRECTION('',(1.,0.,0.));
#1318=DIRECTION('center_axis',(0.,0.,1.));
#1319=DIRECTION('ref_axis',(-1.,0.,0.));
#1320=DIRECTION('center_axis',(0.,0.,1.));
#1321=DIRECTION('ref_axis',(-1.,0.,0.));
#1322=DIRECTION('center_axis',(0.,0.,-1.));
#1323=DIRECTION('ref_axis',(0.,1.,0.));
#1324=DIRECTION('center_axis',(0.,0.,1.));
#1325=DIRECTION('ref_axis',(-1.,0.,0.));
#1326=DIRECTION('center_axis',(0.,0.,1.));
#1327=DIRECTION('ref_axis',(-1.,0.,0.));
#1328=DIRECTION('center_axis',(0.,0.,-1.));
#1329=DIRECTION('ref_axis',(0.166666666666666,0.986013297183269,0.));
#1330=DIRECTION('center_axis',(0.,0.,1.));
#1331=DIRECTION('ref_axis',(0.166666666666666,0.986013297183269,0.));
#1332=DIRECTION('',(0.,0.,1.));
#1333=DIRECTION('',(0.,0.,1.));
#1334=DIRECTION('center_axis',(0.,0.,1.));
#1335=DIRECTION('ref_axis',(0.166666666666669,-0.986013297183269,0.));
#1336=DIRECTION('',(0.,0.,-1.));
#1337=DIRECTION('center_axis',(0.,0.,1.));
#1338=DIRECTION('ref_axis',(0.166666666666669,-0.986013297183269,0.));
#1339=DIRECTION('',(0.,0.,-1.));
#1340=DIRECTION('center_axis',(1.,-1.22464679914735E-16,0.));
#1341=DIRECTION('ref_axis',(-1.22464679914735E-16,-1.,0.));
#1342=DIRECTION('',(-1.22464679914735E-16,-1.,0.));
#1343=DIRECTION('center_axis',(0.,0.,-1.));
#1344=DIRECTION('ref_axis',(1.,-1.22464679914735E-16,0.));
#1345=DIRECTION('',(0.,1.,0.));
#1346=DIRECTION('center_axis',(0.,0.,-1.));
#1347=DIRECTION('ref_axis',(0.986013297183269,-0.166666666666666,0.));
#1348=DIRECTION('center_axis',(0.,0.,1.));
#1349=DIRECTION('ref_axis',(0.986013297183269,-0.166666666666666,0.));
#1350=DIRECTION('',(0.,0.,1.));
#1351=DIRECTION('',(0.,0.,1.));
#1352=DIRECTION('center_axis',(0.,0.,1.));
#1353=DIRECTION('ref_axis',(-0.986013297183269,-0.166666666666666,0.));
#1354=DIRECTION('',(0.,0.,-1.));
#1355=DIRECTION('center_axis',(0.,0.,1.));
#1356=DIRECTION('ref_axis',(-0.986013297183269,-0.166666666666666,0.));
#1357=DIRECTION('',(0.,0.,-1.));
#1358=DIRECTION('center_axis',(-6.12323399573677E-17,-1.,0.));
#1359=DIRECTION('ref_axis',(-1.,6.12323399573677E-17,0.));
#1360=DIRECTION('',(-1.,6.12323399573677E-17,0.));
#1361=DIRECTION('center_axis',(0.,0.,-1.));
#1362=DIRECTION('ref_axis',(-6.12323399573677E-17,-1.,0.));
#1363=DIRECTION('',(1.,0.,0.));
#1364=DIRECTION('center_axis',(0.,0.,-1.));
#1365=DIRECTION('ref_axis',(-0.166666666666666,-0.986013297183269,0.));
#1366=DIRECTION('center_axis',(0.,0.,1.));
#1367=DIRECTION('ref_axis',(-0.166666666666666,-0.986013297183269,0.));
#1368=DIRECTION('',(0.,0.,1.));
#1369=DIRECTION('',(0.,0.,1.));
#1370=DIRECTION('center_axis',(0.,0.,1.));
#1371=DIRECTION('ref_axis',(-0.166666666666666,0.986013297183269,0.));
#1372=DIRECTION('',(0.,0.,-1.));
#1373=DIRECTION('center_axis',(0.,0.,1.));
#1374=DIRECTION('ref_axis',(-0.166666666666666,0.986013297183269,0.));
#1375=DIRECTION('',(0.,0.,-1.));
#1376=DIRECTION('center_axis',(-1.,0.,0.));
#1377=DIRECTION('ref_axis',(0.,1.,0.));
#1378=DIRECTION('',(0.,1.,0.));
#1379=DIRECTION('center_axis',(0.,0.,-1.));
#1380=DIRECTION('ref_axis',(-1.,0.,0.));
#1381=DIRECTION('',(0.,-1.,0.));
#1382=DIRECTION('center_axis',(0.,0.,1.));
#1383=DIRECTION('ref_axis',(-1.,0.,0.));
#1384=DIRECTION('center_axis',(0.,0.,1.));
#1385=DIRECTION('ref_axis',(-1.,0.,0.));
#1386=DIRECTION('center_axis',(0.,0.,1.));
#1387=DIRECTION('ref_axis',(-1.,0.,0.));
#1388=DIRECTION('center_axis',(0.,0.,1.));
#1389=DIRECTION('ref_axis',(-1.,0.,0.));
#1390=DIRECTION('center_axis',(0.,0.,1.));
#1391=DIRECTION('ref_axis',(-1.,0.,0.));
#1392=DIRECTION('',(0.,0.,1.));
#1393=DIRECTION('center_axis',(0.,0.,1.));
#1394=DIRECTION('ref_axis',(-1.,0.,0.));
#1395=DIRECTION('',(0.,0.,1.));
#1396=DIRECTION('center_axis',(0.,0.,-1.));
#1397=DIRECTION('ref_axis',(-1.,0.,0.));
#1398=DIRECTION('center_axis',(0.,0.,1.));
#1399=DIRECTION('ref_axis',(-1.,0.,0.));
#1400=DIRECTION('center_axis',(0.,0.,1.));
#1401=DIRECTION('ref_axis',(-1.,0.,0.));
#1402=DIRECTION('center_axis',(0.,0.,1.));
#1403=DIRECTION('ref_axis',(-1.,0.,0.));
#1404=DIRECTION('center_axis',(0.,0.,1.));
#1405=DIRECTION('ref_axis',(-1.,0.,0.));
#1406=DIRECTION('center_axis',(0.,0.,1.));
#1407=DIRECTION('ref_axis',(-1.,0.,0.));
#1408=DIRECTION('',(0.,0.,1.));
#1409=DIRECTION('center_axis',(0.,0.,1.));
#1410=DIRECTION('ref_axis',(-1.,0.,0.));
#1411=DIRECTION('',(0.,0.,1.));
#1412=DIRECTION('center_axis',(0.,0.,-1.));
#1413=DIRECTION('ref_axis',(-1.,0.,0.));
#1414=DIRECTION('center_axis',(0.,0.,1.));
#1415=DIRECTION('ref_axis',(-1.,0.,0.));
#1416=DIRECTION('center_axis',(0.,0.,1.));
#1417=DIRECTION('ref_axis',(-1.,0.,0.));
#1418=DIRECTION('center_axis',(0.,0.,1.));
#1419=DIRECTION('ref_axis',(-1.,0.,0.));
#1420=DIRECTION('center_axis',(0.,0.,1.));
#1421=DIRECTION('ref_axis',(-1.,0.,0.));
#1422=DIRECTION('center_axis',(0.,0.,1.));
#1423=DIRECTION('ref_axis',(-1.,0.,0.));
#1424=DIRECTION('',(0.,0.,1.));
#1425=DIRECTION('center_axis',(0.,0.,1.));
#1426=DIRECTION('ref_axis',(-1.,0.,0.));
#1427=DIRECTION('',(0.,0.,1.));
#1428=DIRECTION('center_axis',(0.,0.,-1.));
#1429=DIRECTION('ref_axis',(-1.,0.,0.));
#1430=DIRECTION('center_axis',(0.,0.,1.));
#1431=DIRECTION('ref_axis',(-1.,0.,0.));
#1432=DIRECTION('center_axis',(0.,0.,1.));
#1433=DIRECTION('ref_axis',(-1.,0.,0.));
#1434=DIRECTION('center_axis',(0.,0.,1.));
#1435=DIRECTION('ref_axis',(-1.,0.,0.));
#1436=DIRECTION('center_axis',(0.,0.,1.));
#1437=DIRECTION('ref_axis',(-1.,0.,0.));
#1438=DIRECTION('center_axis',(0.,0.,1.));
#1439=DIRECTION('ref_axis',(-1.,0.,0.));
#1440=DIRECTION('',(0.,0.,1.));
#1441=DIRECTION('center_axis',(0.,0.,1.));
#1442=DIRECTION('ref_axis',(-1.,0.,0.));
#1443=DIRECTION('',(0.,0.,1.));
#1444=DIRECTION('center_axis',(0.,0.,-1.));
#1445=DIRECTION('ref_axis',(-1.,0.,0.));
#1446=DIRECTION('center_axis',(0.,0.,1.));
#1447=DIRECTION('ref_axis',(-1.,0.,0.));
#1448=DIRECTION('',(-0.707106781186546,-8.65956056235492E-17,-0.707106781186549));
#1449=DIRECTION('center_axis',(0.,0.,-1.));
#1450=DIRECTION('ref_axis',(-1.,0.,0.));
#1451=DIRECTION('center_axis',(0.,0.,-1.));
#1452=DIRECTION('ref_axis',(-1.,0.,0.));
#1453=DIRECTION('',(0.,0.,-1.));
#1454=DIRECTION('center_axis',(0.,0.,1.));
#1455=DIRECTION('ref_axis',(-1.,0.,0.));
#1456=DIRECTION('center_axis',(0.,0.,1.));
#1457=DIRECTION('ref_axis',(-1.,0.,0.));
#1458=DIRECTION('',(-0.707106781186546,-8.65956056235492E-17,-0.707106781186549));
#1459=DIRECTION('center_axis',(0.,0.,-1.));
#1460=DIRECTION('ref_axis',(-1.,0.,0.));
#1461=DIRECTION('center_axis',(0.,0.,-1.));
#1462=DIRECTION('ref_axis',(-1.,0.,0.));
#1463=DIRECTION('',(0.,0.,-1.));
#1464=DIRECTION('center_axis',(0.,0.,1.));
#1465=DIRECTION('ref_axis',(-1.,0.,0.));
#1466=DIRECTION('center_axis',(0.,0.,1.));
#1467=DIRECTION('ref_axis',(-1.,0.,0.));
#1468=DIRECTION('',(-0.707106781186546,-8.65956056235492E-17,-0.707106781186549));
#1469=DIRECTION('center_axis',(0.,0.,-1.));
#1470=DIRECTION('ref_axis',(-1.,0.,0.));
#1471=DIRECTION('center_axis',(0.,0.,-1.));
#1472=DIRECTION('ref_axis',(-1.,0.,0.));
#1473=DIRECTION('',(0.,0.,-1.));
#1474=DIRECTION('center_axis',(0.,0.,1.));
#1475=DIRECTION('ref_axis',(-1.,0.,0.));
#1476=DIRECTION('center_axis',(0.,0.,1.));
#1477=DIRECTION('ref_axis',(-1.,0.,0.));
#1478=DIRECTION('',(-0.707106781186546,-8.65956056235492E-17,-0.707106781186549));
#1479=DIRECTION('center_axis',(0.,0.,-1.));
#1480=DIRECTION('ref_axis',(-1.,0.,0.));
#1481=DIRECTION('center_axis',(0.,0.,-1.));
#1482=DIRECTION('ref_axis',(-1.,0.,0.));
#1483=DIRECTION('',(0.,0.,-1.));
#1484=DIRECTION('center_axis',(0.,0.,1.));
#1485=DIRECTION('ref_axis',(-1.,0.,0.));
#1486=DIRECTION('center_axis',(0.,0.,-1.));
#1487=DIRECTION('ref_axis',(-1.,0.,0.));
#1488=DIRECTION('center_axis',(0.,0.,-1.));
#1489=DIRECTION('ref_axis',(-1.,0.,0.));
#1490=DIRECTION('center_axis',(0.,0.,-1.));
#1491=DIRECTION('ref_axis',(-1.,0.,0.));
#1492=DIRECTION('center_axis',(0.,0.,-1.));
#1493=DIRECTION('ref_axis',(-1.,0.,0.));
#1494=DIRECTION('center_axis',(0.,0.,-1.));
#1495=DIRECTION('ref_axis',(-1.,0.,0.));
#1496=DIRECTION('center_axis',(0.,0.,-1.));
#1497=DIRECTION('ref_axis',(6.12323399573677E-17,-1.,0.));
#1498=DIRECTION('center_axis',(1.22464679914735E-16,1.,0.));
#1499=DIRECTION('ref_axis',(1.,-1.22464679914735E-16,0.));
#1500=DIRECTION('center_axis',(0.,0.,1.));
#1501=DIRECTION('ref_axis',(-3.06161699786838E-17,-1.,0.));
#1502=DIRECTION('center_axis',(0.,0.,1.));
#1503=DIRECTION('ref_axis',(-3.06161699786838E-17,-1.,0.));
#1504=DIRECTION('center_axis',(0.,0.,-1.));
#1505=DIRECTION('ref_axis',(-1.,0.,0.));
#1506=DIRECTION('center_axis',(0.,0.,1.));
#1507=DIRECTION('ref_axis',(0.,1.,0.));
#1508=DIRECTION('center_axis',(0.,0.,-1.));
#1509=DIRECTION('ref_axis',(0.,1.,0.));
#1510=DIRECTION('center_axis',(0.,0.,1.));
#1511=DIRECTION('ref_axis',(0.,1.,0.));
#1512=DIRECTION('',(-1.0673500138323E-17,-0.0871557427476582,-0.996194698091746));
#1513=DIRECTION('center_axis',(0.,0.,-1.));
#1514=DIRECTION('ref_axis',(-1.,0.,0.));
#1515=DIRECTION('center_axis',(0.,0.,-1.));
#1516=DIRECTION('ref_axis',(6.12323399573676E-17,1.,0.));
#1517=DIRECTION('center_axis',(0.,0.,-1.));
#1518=DIRECTION('ref_axis',(6.12323399573676E-17,1.,0.));
#1519=DIRECTION('center_axis',(1.22464679914735E-16,1.,0.));
#1520=DIRECTION('ref_axis',(1.,-1.22464679914735E-16,0.));
#1521=DIRECTION('center_axis',(0.,0.,1.));
#1522=DIRECTION('ref_axis',(0.,1.,0.));
#1523=DIRECTION('',(1.0673500138323E-17,0.0871557427476582,-0.996194698091745));
#1524=DIRECTION('center_axis',(0.,0.,1.));
#1525=DIRECTION('ref_axis',(0.707106781186547,0.707106781186547,0.));
#1526=DIRECTION('',(0.,0.707106781186546,0.707106781186549));
#1527=DIRECTION('center_axis',(0.,0.,-1.));
#1528=DIRECTION('ref_axis',(0.707106781186547,0.707106781186547,0.));
#1529=DIRECTION('',(-0.707106781186546,0.,-0.707106781186549));
#1530=DIRECTION('center_axis',(0.,0.,1.));
#1531=DIRECTION('ref_axis',(0.707106781186548,0.707106781186548,0.));
#1532=DIRECTION('center_axis',(0.,0.707106781186549,-0.707106781186546));
#1533=DIRECTION('ref_axis',(-1.,0.,0.));
#1534=DIRECTION('',(-1.,0.,0.));
#1535=DIRECTION('',(0.,0.707106781186546,0.707106781186549));
#1536=DIRECTION('',(1.,0.,0.));
#1537=DIRECTION('center_axis',(0.,0.,1.));
#1538=DIRECTION('ref_axis',(-0.707106781186547,0.707106781186547,0.));
#1539=DIRECTION('',(-0.707106781186546,0.,0.707106781186549));
#1540=DIRECTION('center_axis',(0.,0.,-1.));
#1541=DIRECTION('ref_axis',(-0.707106781186547,0.707106781186547,0.));
#1542=DIRECTION('center_axis',(0.,0.,1.));
#1543=DIRECTION('ref_axis',(-0.707106781186548,0.707106781186548,0.));
#1544=DIRECTION('center_axis',(-0.707106781186549,0.,-0.707106781186546));
#1545=DIRECTION('ref_axis',(-0.707106781186546,0.,0.707106781186549));
#1546=DIRECTION('',(0.,-1.,0.));
#1547=DIRECTION('',(-0.707106781186546,0.,0.707106781186549));
#1548=DIRECTION('',(0.,1.,0.));
#1549=DIRECTION('center_axis',(0.,0.,1.));
#1550=DIRECTION('ref_axis',(-0.707106781186547,-0.707106781186547,0.));
#1551=DIRECTION('',(0.,-0.707106781186546,0.707106781186549));
#1552=DIRECTION('center_axis',(0.,0.,-1.));
#1553=DIRECTION('ref_axis',(-0.707106781186547,-0.707106781186547,0.));
#1554=DIRECTION('center_axis',(0.,0.,1.));
#1555=DIRECTION('ref_axis',(-0.707106781186548,-0.707106781186548,0.));
#1556=DIRECTION('center_axis',(0.,-0.707106781186549,-0.707106781186546));
#1557=DIRECTION('ref_axis',(-1.,0.,0.));
#1558=DIRECTION('',(1.,0.,0.));
#1559=DIRECTION('',(0.,-0.707106781186546,0.707106781186549));
#1560=DIRECTION('',(-1.,0.,0.));
#1561=DIRECTION('center_axis',(0.,0.,1.));
#1562=DIRECTION('ref_axis',(0.707106781186547,-0.707106781186547,0.));
#1563=DIRECTION('',(0.707106781186546,0.,0.707106781186549));
#1564=DIRECTION('center_axis',(0.,0.,-1.));
#1565=DIRECTION('ref_axis',(0.707106781186547,-0.707106781186547,0.));
#1566=DIRECTION('center_axis',(0.,0.,1.));
#1567=DIRECTION('ref_axis',(0.707106781186548,-0.707106781186548,0.));
#1568=DIRECTION('center_axis',(0.707106781186549,0.,-0.707106781186546));
#1569=DIRECTION('ref_axis',(-0.707106781186546,0.,-0.707106781186549));
#1570=DIRECTION('',(0.,1.,0.));
#1571=DIRECTION('',(0.,-1.,0.));
#1572=DIRECTION('center_axis',(0.,-1.,0.));
#1573=DIRECTION('ref_axis',(-1.,0.,0.));
#1574=DIRECTION('',(0.,0.,1.));
#1575=DIRECTION('',(0.,0.,-1.));
#1576=DIRECTION('center_axis',(0.,0.,-1.));
#1577=DIRECTION('ref_axis',(0.707106781186547,-0.707106781186547,0.));
#1578=DIRECTION('',(0.,0.,1.));
#1579=DIRECTION('center_axis',(1.,0.,0.));
#1580=DIRECTION('ref_axis',(0.,-1.,0.));
#1581=DIRECTION('',(0.,0.,-1.));
#1582=DIRECTION('center_axis',(0.,0.,-1.));
#1583=DIRECTION('ref_axis',(0.707106781186547,0.707106781186547,0.));
#1584=DIRECTION('',(0.,0.,1.));
#1585=DIRECTION('center_axis',(0.,0.,-1.));
#1586=DIRECTION('ref_axis',(-1.,0.,0.));
#1587=DIRECTION('center_axis',(0.,1.,0.));
#1588=DIRECTION('ref_axis',(1.,0.,0.));
#1589=DIRECTION('',(0.,0.,-1.));
#1590=DIRECTION('center_axis',(0.,0.,-1.));
#1591=DIRECTION('ref_axis',(-0.707106781186547,-0.707106781186547,0.));
#1592=DIRECTION('',(0.,0.,-1.));
#1593=DIRECTION('center_axis',(0.,0.,-1.));
#1594=DIRECTION('ref_axis',(-0.707106781186547,0.707106781186547,0.));
#1595=DIRECTION('',(0.,0.,1.));
#1596=DIRECTION('center_axis',(-1.,0.,0.));
#1597=DIRECTION('ref_axis',(0.,1.,0.));
#1598=DIRECTION('center_axis',(0.,0.,-1.));
#1599=DIRECTION('ref_axis',(-1.,0.,0.));
#1600=CARTESIAN_POINT('',(0.,0.,0.));
#1601=CARTESIAN_POINT('Origin',(3.33066907387547E-15,0.,-4.53759422170034));
#1602=CARTESIAN_POINT('',(2.18524159002592,-2.67614911858891E-16,2.));
#1603=CARTESIAN_POINT('Origin',(3.33066907387547E-15,0.,2.));
#1604=CARTESIAN_POINT('',(1.5,-1.83697019872103E-16,-11.0751884434007));
#1605=CARTESIAN_POINT('',(1.84262079501296,-2.25655965865497E-16,-4.53759422170034));
#1606=CARTESIAN_POINT('',(-1.5,0.,-11.0751884434007));
#1607=CARTESIAN_POINT('Origin',(3.33066907387547E-15,0.,-11.0751884434007));
#1608=CARTESIAN_POINT('Origin',(3.33066907387547E-15,0.,-11.0751884434007));
#1609=CARTESIAN_POINT('Origin',(2.66453525910038E-14,0.,-26.));
#1610=CARTESIAN_POINT('',(-7.4833147735479,0.,-13.));
#1611=CARTESIAN_POINT('Origin',(2.66453525910038E-14,0.,-13.));
#1612=CARTESIAN_POINT('Origin',(2.66453525910038E-14,0.,-26.));
#1613=CARTESIAN_POINT('Origin',(-19.0839202169004,-51.5249319811555,2.));
#1614=CARTESIAN_POINT('',(-19.0839202169004,-45.5249319811555,1.));
#1615=CARTESIAN_POINT('',(-25.,-50.5249319811555,1.));
#1616=CARTESIAN_POINT('Origin',(-19.0839202169004,-51.5249319811555,1.));
#1617=CARTESIAN_POINT('',(-19.0839202169004,-45.5249319811555,2.));
#1618=CARTESIAN_POINT('',(-19.0839202169004,-45.5249319811555,2.));
#1619=CARTESIAN_POINT('',(-25.,-50.5249319811555,2.));
#1620=CARTESIAN_POINT('Origin',(-19.0839202169004,-51.5249319811555,2.));
#1621=CARTESIAN_POINT('',(-25.,-50.5249319811555,2.));
#1622=CARTESIAN_POINT('Origin',(19.0839202169004,-51.5249319811555,2.));
#1623=CARTESIAN_POINT('',(19.0839202169004,-45.5249319811556,2.));
#1624=CARTESIAN_POINT('',(25.,-50.5249319811555,2.));
#1625=CARTESIAN_POINT('Origin',(19.0839202169004,-51.5249319811555,2.));
#1626=CARTESIAN_POINT('',(19.0839202169004,-45.5249319811556,1.));
#1627=CARTESIAN_POINT('',(19.0839202169004,-45.5249319811555,2.));
#1628=CARTESIAN_POINT('',(25.,-50.5249319811555,1.));
#1629=CARTESIAN_POINT('Origin',(19.0839202169004,-51.5249319811555,1.));
#1630=CARTESIAN_POINT('',(25.,-50.5249319811555,2.));
#1631=CARTESIAN_POINT('Origin',(-25.,-45.5249319811555,2.));
#1632=CARTESIAN_POINT('',(25.,-45.5249319811556,1.));
#1633=CARTESIAN_POINT('',(-12.5,-45.5249319811555,2.));
#1634=CARTESIAN_POINT('Origin',(-9.28127943417898E-15,-50.5249319811555,
1.));
#1635=CARTESIAN_POINT('',(25.2624659905778,-50.5249319811555,1.));
#1636=CARTESIAN_POINT('Origin',(0.,0.,2.));
#1637=CARTESIAN_POINT('',(40.5249319811555,-50.5249319811555,2.));
#1638=CARTESIAN_POINT('',(-50.5249319811555,-50.5249319811555,2.));
#1639=CARTESIAN_POINT('',(50.5249319811555,-40.5249319811555,2.));
#1640=CARTESIAN_POINT('Origin',(40.5249319811555,-40.5249319811555,2.));
#1641=CARTESIAN_POINT('',(50.5249319811555,-25.,2.));
#1642=CARTESIAN_POINT('',(50.5249319811555,-50.5249319811555,2.));
#1643=CARTESIAN_POINT('',(45.5249319811555,-19.0839202169004,2.));
#1644=CARTESIAN_POINT('Origin',(51.5249319811555,-19.0839202169004,2.));
#1645=CARTESIAN_POINT('',(45.5249319811555,19.0839202169004,2.));
#1646=CARTESIAN_POINT('',(45.5249319811555,-12.5,2.));
#1647=CARTESIAN_POINT('',(50.5249319811555,25.,2.));
#1648=CARTESIAN_POINT('Origin',(51.5249319811555,19.0839202169004,2.));
#1649=CARTESIAN_POINT('',(50.5249319811555,40.5249319811555,2.));
#1650=CARTESIAN_POINT('',(50.5249319811555,-50.5249319811555,2.));
#1651=CARTESIAN_POINT('',(40.5249319811555,50.5249319811555,2.));
#1652=CARTESIAN_POINT('Origin',(40.5249319811555,40.5249319811555,2.));
#1653=CARTESIAN_POINT('',(25.,50.5249319811555,2.));
#1654=CARTESIAN_POINT('',(50.5249319811555,50.5249319811555,2.));
#1655=CARTESIAN_POINT('',(19.0839202169004,45.5249319811555,2.));
#1656=CARTESIAN_POINT('Origin',(19.0839202169004,51.5249319811555,2.));
#1657=CARTESIAN_POINT('',(-19.0839202169004,45.5249319811555,2.));
#1658=CARTESIAN_POINT('',(12.5,45.5249319811555,2.));
#1659=CARTESIAN_POINT('',(-25.,50.5249319811555,2.));
#1660=CARTESIAN_POINT('Origin',(-19.0839202169004,51.5249319811555,2.));
#1661=CARTESIAN_POINT('',(-40.5249319811555,50.5249319811555,2.));
#1662=CARTESIAN_POINT('',(50.5249319811555,50.5249319811555,2.));
#1663=CARTESIAN_POINT('',(-50.5249319811555,40.5249319811555,2.));
#1664=CARTESIAN_POINT('Origin',(-40.5249319811555,40.5249319811555,2.));
#1665=CARTESIAN_POINT('',(-50.5249319811555,25.,2.));
#1666=CARTESIAN_POINT('',(-50.5249319811555,50.5249319811555,2.));
#1667=CARTESIAN_POINT('',(-45.5249319811555,19.0839202169004,2.));
#1668=CARTESIAN_POINT('Origin',(-51.5249319811555,19.0839202169004,2.));
#1669=CARTESIAN_POINT('',(-45.5249319811555,-19.0839202169004,2.));
#1670=CARTESIAN_POINT('',(-45.5249319811555,12.5,2.));
#1671=CARTESIAN_POINT('',(-50.5249319811555,-25.,2.));
#1672=CARTESIAN_POINT('Origin',(-51.5249319811556,-19.0839202169004,2.));
#1673=CARTESIAN_POINT('',(-50.5249319811555,-40.5249319811555,2.));
#1674=CARTESIAN_POINT('',(-50.5249319811555,50.5249319811555,2.));
#1675=CARTESIAN_POINT('',(-40.5249319811555,-50.5249319811555,2.));
#1676=CARTESIAN_POINT('Origin',(-40.5249319811555,-40.5249319811555,2.));
#1677=CARTESIAN_POINT('',(-50.5249319811555,-50.5249319811555,2.));
#1678=CARTESIAN_POINT('',(-30.4249319811555,38.5249319811555,2.));
#1679=CARTESIAN_POINT('Origin',(-38.5249319811555,38.5249319811555,2.));
#1680=CARTESIAN_POINT('',(46.6249319811555,-38.5249319811555,2.));
#1681=CARTESIAN_POINT('Origin',(38.5249319811555,-38.5249319811555,2.));
#1682=CARTESIAN_POINT('',(4.96287282363863E-15,-40.5249319811555,2.));
#1683=CARTESIAN_POINT('Origin',(0.,0.,2.));
#1684=CARTESIAN_POINT('',(-30.4249319811555,-38.5249319811555,2.));
#1685=CARTESIAN_POINT('Origin',(-38.5249319811555,-38.5249319811555,2.));
#1686=CARTESIAN_POINT('',(46.6249319811556,38.5249319811555,2.));
#1687=CARTESIAN_POINT('Origin',(38.5249319811556,38.5249319811555,2.));
#1688=CARTESIAN_POINT('Origin',(-51.5249319811555,19.0839202169004,2.));
#1689=CARTESIAN_POINT('',(-45.5249319811555,19.0839202169004,1.));
#1690=CARTESIAN_POINT('',(-50.5249319811555,25.,1.));
#1691=CARTESIAN_POINT('Origin',(-51.5249319811555,19.0839202169004,1.));
#1692=CARTESIAN_POINT('',(-45.5249319811555,19.0839202169004,2.));
#1693=CARTESIAN_POINT('',(-50.5249319811555,25.,2.));
#1694=CARTESIAN_POINT('Origin',(-51.5249319811556,-19.0839202169004,2.));
#1695=CARTESIAN_POINT('',(-45.5249319811555,-19.0839202169004,1.));
#1696=CARTESIAN_POINT('',(-45.5249319811556,-19.0839202169004,2.));
#1697=CARTESIAN_POINT('',(-50.5249319811555,-25.,1.));
#1698=CARTESIAN_POINT('Origin',(-51.5249319811556,-19.0839202169004,1.));
#1699=CARTESIAN_POINT('',(-50.5249319811555,-25.,2.));
#1700=CARTESIAN_POINT('Origin',(-45.5249319811555,25.,2.));
#1701=CARTESIAN_POINT('',(-45.5249319811555,-25.,1.));
#1702=CARTESIAN_POINT('Origin',(-50.5249319811555,6.18751962278599E-15,
1.));
#1703=CARTESIAN_POINT('',(-50.5249319811555,-25.2624659905778,1.));
#1704=CARTESIAN_POINT('Origin',(19.0839202169004,51.5249319811555,2.));
#1705=CARTESIAN_POINT('',(19.0839202169004,45.5249319811555,1.));
#1706=CARTESIAN_POINT('',(25.,50.5249319811555,1.));
#1707=CARTESIAN_POINT('Origin',(19.0839202169004,51.5249319811555,1.));
#1708=CARTESIAN_POINT('',(19.0839202169004,45.5249319811555,2.));
#1709=CARTESIAN_POINT('',(25.,50.5249319811555,2.));
#1710=CARTESIAN_POINT('Origin',(-19.0839202169004,51.5249319811555,2.));
#1711=CARTESIAN_POINT('',(-19.0839202169004,45.5249319811555,1.));
#1712=CARTESIAN_POINT('',(-19.0839202169004,45.5249319811555,2.));
#1713=CARTESIAN_POINT('',(-25.,50.5249319811555,1.));
#1714=CARTESIAN_POINT('Origin',(-19.0839202169004,51.5249319811555,1.));
#1715=CARTESIAN_POINT('',(-25.,50.5249319811555,2.));
#1716=CARTESIAN_POINT('Origin',(25.,45.5249319811555,2.));
#1717=CARTESIAN_POINT('',(-25.,45.5249319811555,1.));
#1718=CARTESIAN_POINT('Origin',(3.09375981139299E-15,50.5249319811555,1.));
#1719=CARTESIAN_POINT('',(-25.2624659905778,50.5249319811555,1.));
#1720=CARTESIAN_POINT('Origin',(51.5249319811555,-19.0839202169004,2.));
#1721=CARTESIAN_POINT('',(45.5249319811555,-19.0839202169004,1.));
#1722=CARTESIAN_POINT('',(50.5249319811555,-25.,1.));
#1723=CARTESIAN_POINT('Origin',(51.5249319811555,-19.0839202169004,1.));
#1724=CARTESIAN_POINT('',(45.5249319811555,-19.0839202169004,2.));
#1725=CARTESIAN_POINT('',(50.5249319811555,-25.,2.));
#1726=CARTESIAN_POINT('Origin',(51.5249319811555,19.0839202169004,2.));
#1727=CARTESIAN_POINT('',(45.5249319811555,19.0839202169004,1.));
#1728=CARTESIAN_POINT('',(45.5249319811555,19.0839202169004,2.));
#1729=CARTESIAN_POINT('',(50.5249319811555,25.,1.));
#1730=CARTESIAN_POINT('Origin',(51.5249319811555,19.0839202169004,1.));
#1731=CARTESIAN_POINT('',(50.5249319811555,25.,2.));
#1732=CARTESIAN_POINT('Origin',(45.5249319811555,-25.,2.));
#1733=CARTESIAN_POINT('',(45.5249319811555,25.,1.));
#1734=CARTESIAN_POINT('Origin',(50.5249319811555,0.,1.));
#1735=CARTESIAN_POINT('',(50.5249319811555,25.2624659905778,1.));
#1736=CARTESIAN_POINT('Origin',(38.5249319811555,-38.5249319811555,-7.));
#1737=CARTESIAN_POINT('',(44.0249319811555,-38.5249319811555,-7.));
#1738=CARTESIAN_POINT('Origin',(38.5249319811555,-38.5249319811555,-7.));
#1739=CARTESIAN_POINT('',(41.8249319811555,-38.5249319811555,-7.));
#1740=CARTESIAN_POINT('Origin',(38.5249319811555,-38.5249319811555,-7.));
#1741=CARTESIAN_POINT('Origin',(38.5249319811555,-38.5249319811555,-10.));
#1742=CARTESIAN_POINT('',(44.0249319811555,-38.5249319811555,-13.));
#1743=CARTESIAN_POINT('Origin',(38.5249319811555,-38.5249319811555,-13.));
#1744=CARTESIAN_POINT('',(44.0249319811555,-38.5249319811555,-10.));
#1745=CARTESIAN_POINT('Origin',(38.5249319811555,-38.5249319811555,-4.75));
#1746=CARTESIAN_POINT('',(41.8249319811555,-38.5249319811555,-1.));
#1747=CARTESIAN_POINT('',(41.8249319811555,-38.5249319811555,-4.75));
#1748=CARTESIAN_POINT('Origin',(38.5249319811555,-38.5249319811555,-1.));
#1749=CARTESIAN_POINT('Origin',(-38.5249319811555,38.5249319811555,-7.));
#1750=CARTESIAN_POINT('',(-33.0249319811555,38.5249319811555,-7.));
#1751=CARTESIAN_POINT('Origin',(-38.5249319811555,38.5249319811555,-7.));
#1752=CARTESIAN_POINT('',(-35.2249319811555,38.5249319811555,-7.));
#1753=CARTESIAN_POINT('Origin',(-38.5249319811555,38.5249319811555,-7.));
#1754=CARTESIAN_POINT('Origin',(-38.5249319811555,38.5249319811555,-10.));
#1755=CARTESIAN_POINT('',(-33.0249319811555,38.5249319811555,-13.));
#1756=CARTESIAN_POINT('Origin',(-38.5249319811555,38.5249319811555,-13.));
#1757=CARTESIAN_POINT('',(-33.0249319811555,38.5249319811555,-10.));
#1758=CARTESIAN_POINT('Origin',(-38.5249319811555,38.5249319811555,-4.75));
#1759=CARTESIAN_POINT('',(-35.2249319811555,38.5249319811555,-1.));
#1760=CARTESIAN_POINT('',(-35.2249319811555,38.5249319811555,-4.75));
#1761=CARTESIAN_POINT('Origin',(-38.5249319811555,38.5249319811555,-1.));
#1762=CARTESIAN_POINT('Origin',(38.5249319811556,38.5249319811555,-7.));
#1763=CARTESIAN_POINT('',(44.0249319811556,38.5249319811555,-7.));
#1764=CARTESIAN_POINT('Origin',(38.5249319811556,38.5249319811555,-7.));
#1765=CARTESIAN_POINT('',(41.8249319811556,38.5249319811555,-7.));
#1766=CARTESIAN_POINT('Origin',(38.5249319811556,38.5249319811555,-7.));
#1767=CARTESIAN_POINT('Origin',(38.5249319811556,38.5249319811555,-10.));
#1768=CARTESIAN_POINT('',(44.0249319811556,38.5249319811555,-13.));
#1769=CARTESIAN_POINT('Origin',(38.5249319811556,38.5249319811555,-13.));
#1770=CARTESIAN_POINT('',(44.0249319811556,38.5249319811555,-10.));
#1771=CARTESIAN_POINT('Origin',(38.5249319811556,38.5249319811555,-4.75));
#1772=CARTESIAN_POINT('',(41.8249319811556,38.5249319811555,-1.));
#1773=CARTESIAN_POINT('',(41.8249319811556,38.5249319811555,-4.75));
#1774=CARTESIAN_POINT('Origin',(38.5249319811556,38.5249319811555,-1.));
#1775=CARTESIAN_POINT('Origin',(-38.5249319811555,-38.5249319811555,-7.));
#1776=CARTESIAN_POINT('',(-33.0249319811555,-38.5249319811555,-7.));
#1777=CARTESIAN_POINT('Origin',(-38.5249319811555,-38.5249319811555,-7.));
#1778=CARTESIAN_POINT('',(-35.2249319811555,-38.5249319811555,-7.));
#1779=CARTESIAN_POINT('Origin',(-38.5249319811555,-38.5249319811555,-7.));
#1780=CARTESIAN_POINT('Origin',(-38.5249319811555,-38.5249319811555,-10.));
#1781=CARTESIAN_POINT('',(-33.0249319811555,-38.5249319811555,-13.));
#1782=CARTESIAN_POINT('Origin',(-38.5249319811555,-38.5249319811555,-13.));
#1783=CARTESIAN_POINT('',(-33.0249319811555,-38.5249319811555,-10.));
#1784=CARTESIAN_POINT('Origin',(-38.5249319811555,-38.5249319811555,-4.75));
#1785=CARTESIAN_POINT('',(-35.2249319811555,-38.5249319811555,-1.));
#1786=CARTESIAN_POINT('',(-35.2249319811555,-38.5249319811555,-4.75));
#1787=CARTESIAN_POINT('Origin',(-38.5249319811555,-38.5249319811555,-1.));
#1788=CARTESIAN_POINT('Origin',(38.5249319811556,38.5249319811555,1.75));
#1789=CARTESIAN_POINT('',(46.1249319811556,38.5249319811555,1.5));
#1790=CARTESIAN_POINT('',(46.3749319811556,38.5249319811555,1.75));
#1791=CARTESIAN_POINT('Origin',(38.5249319811556,38.5249319811555,1.5));
#1792=CARTESIAN_POINT('Origin',(38.5249319811556,38.5249319811555,2.));
#1793=CARTESIAN_POINT('',(46.1249319811556,38.5249319811555,-1.));
#1794=CARTESIAN_POINT('',(46.1249319811556,38.5249319811555,2.));
#1795=CARTESIAN_POINT('Origin',(38.5249319811556,38.5249319811555,-1.));
#1796=CARTESIAN_POINT('Origin',(-38.5249319811555,38.5249319811555,1.75));
#1797=CARTESIAN_POINT('',(-30.9249319811555,38.5249319811555,1.5));
#1798=CARTESIAN_POINT('',(-30.6749319811555,38.5249319811555,1.75));
#1799=CARTESIAN_POINT('Origin',(-38.5249319811555,38.5249319811555,1.5));
#1800=CARTESIAN_POINT('Origin',(-38.5249319811555,38.5249319811555,2.));
#1801=CARTESIAN_POINT('',(-30.9249319811555,38.5249319811555,-1.));
#1802=CARTESIAN_POINT('',(-30.9249319811555,38.5249319811555,2.));
#1803=CARTESIAN_POINT('Origin',(-38.5249319811555,38.5249319811555,-1.));
#1804=CARTESIAN_POINT('Origin',(-38.5249319811555,-38.5249319811555,1.75));
#1805=CARTESIAN_POINT('',(-30.9249319811555,-38.5249319811555,1.5));
#1806=CARTESIAN_POINT('',(-30.6749319811555,-38.5249319811555,1.75));
#1807=CARTESIAN_POINT('Origin',(-38.5249319811555,-38.5249319811555,1.5));
#1808=CARTESIAN_POINT('Origin',(-38.5249319811555,-38.5249319811555,2.));
#1809=CARTESIAN_POINT('',(-30.9249319811555,-38.5249319811555,-1.));
#1810=CARTESIAN_POINT('',(-30.9249319811555,-38.5249319811555,2.));
#1811=CARTESIAN_POINT('Origin',(-38.5249319811555,-38.5249319811555,-1.));
#1812=CARTESIAN_POINT('Origin',(38.5249319811555,-38.5249319811555,1.75));
#1813=CARTESIAN_POINT('',(46.1249319811555,-38.5249319811555,1.5));
#1814=CARTESIAN_POINT('',(46.3749319811555,-38.5249319811555,1.75));
#1815=CARTESIAN_POINT('Origin',(38.5249319811555,-38.5249319811555,1.5));
#1816=CARTESIAN_POINT('Origin',(38.5249319811555,-38.5249319811555,2.));
#1817=CARTESIAN_POINT('',(46.1249319811555,-38.5249319811555,-1.));
#1818=CARTESIAN_POINT('',(46.1249319811555,-38.5249319811555,2.));
#1819=CARTESIAN_POINT('Origin',(38.5249319811555,-38.5249319811555,-1.));
#1820=CARTESIAN_POINT('Origin',(38.5249319811555,38.5249319811555,-1.));
#1821=CARTESIAN_POINT('Origin',(-38.5249319811555,-38.5249319811555,-1.));
#1822=CARTESIAN_POINT('Origin',(38.5249319811555,-38.5249319811555,-1.));
#1823=CARTESIAN_POINT('Origin',(-38.5249319811555,38.5249319811555,-1.));
#1824=CARTESIAN_POINT('Origin',(0.,0.,1.));
#1825=CARTESIAN_POINT('',(34.9163311740174,-4.27601732102294E-15,2.77555756156289E-16));
#1826=CARTESIAN_POINT('Origin',(0.,0.,2.77555756156289E-16));
#1827=CARTESIAN_POINT('',(33.9201364759257,-4.15401865618838E-15,0.912844257252342));
#1828=CARTESIAN_POINT('Origin',(34.9163311740174,-4.27601732102294E-15,
1.));
#1829=CARTESIAN_POINT('',(-4.15401865618838E-15,-33.9201364759257,0.912844257252342));
#1830=CARTESIAN_POINT('Origin',(-3.11551399214128E-15,0.,0.912844257252342));
#1831=CARTESIAN_POINT('Origin',(-3.11551399214128E-15,0.,0.912844257252342));
#1832=CARTESIAN_POINT('Origin',(0.,34.,2.77555756156289E-16));
#1833=CARTESIAN_POINT('',(39.4336234800863,-4.82922607736696E-15,2.77555756156289E-16));
#1834=CARTESIAN_POINT('Origin',(0.,0.,2.77555756156289E-16));
#1835=CARTESIAN_POINT('Origin',(0.,0.,0.));
#1836=CARTESIAN_POINT('',(-4.14237057475126E-15,-33.8250226729482,2.));
#1837=CARTESIAN_POINT('Origin',(0.,0.,2.));
#1838=CARTESIAN_POINT('',(-4.163799117101E-15,-34.,0.));
#1839=CARTESIAN_POINT('Origin',(0.,0.,1.));
#1840=CARTESIAN_POINT('',(-9.90244948440304E-15,-40.429818178178,0.912844257252343));
#1841=CARTESIAN_POINT('',(40.429818178178,-4.95122474220152E-15,0.912844257252343));
#1842=CARTESIAN_POINT('Origin',(-2.47561237110076E-15,0.,0.912844257252343));
#1843=CARTESIAN_POINT('Origin',(-2.47561237110076E-15,0.,0.912844257252343));
#1844=CARTESIAN_POINT('Origin',(39.4336234800863,-4.82922607736696E-15,
1.));
#1845=CARTESIAN_POINT('Origin',(0.,0.,2.));
#1846=CARTESIAN_POINT('',(-4.96287282363863E-15,-40.5249319811555,2.));
#1847=CARTESIAN_POINT('Origin',(40.5249319811555,40.5249319811555,-12.5));
#1848=CARTESIAN_POINT('',(40.5249319811555,49.5249319811555,-13.));
#1849=CARTESIAN_POINT('',(40.5249319811555,50.5249319811555,-12.));
#1850=CARTESIAN_POINT('',(40.5249319811555,49.5249319811555,-13.));
#1851=CARTESIAN_POINT('',(50.5249319811555,40.5249319811555,-12.));
#1852=CARTESIAN_POINT('Origin',(40.5249319811555,40.5249319811555,-12.));
#1853=CARTESIAN_POINT('',(49.5249319811555,40.5249319811555,-13.));
#1854=CARTESIAN_POINT('',(50.5249319811555,40.5249319811555,-12.));
#1855=CARTESIAN_POINT('Origin',(40.5249319811555,40.5249319811555,-13.));
#1856=CARTESIAN_POINT('Origin',(-25.2624659905778,50.0249319811555,-12.5));
#1857=CARTESIAN_POINT('',(-40.5249319811555,49.5249319811555,-13.));
#1858=CARTESIAN_POINT('',(-25.2624659905778,49.5249319811555,-13.));
#1859=CARTESIAN_POINT('',(-40.5249319811555,50.5249319811555,-12.));
#1860=CARTESIAN_POINT('',(-40.5249319811555,49.5249319811555,-13.));
#1861=CARTESIAN_POINT('',(-25.2624659905778,50.5249319811555,-12.));
#1862=CARTESIAN_POINT('Origin',(-40.5249319811555,40.5249319811555,-12.5));
#1863=CARTESIAN_POINT('',(-49.5249319811555,40.5249319811555,-13.));
#1864=CARTESIAN_POINT('',(-50.5249319811555,40.5249319811555,-12.));
#1865=CARTESIAN_POINT('',(-49.5249319811555,40.5249319811555,-13.));
#1866=CARTESIAN_POINT('Origin',(-40.5249319811555,40.5249319811555,-12.));
#1867=CARTESIAN_POINT('Origin',(-40.5249319811555,40.5249319811555,-13.));
#1868=CARTESIAN_POINT('Origin',(-50.0249319811555,-25.2624659905778,-12.5));
#1869=CARTESIAN_POINT('',(-49.5249319811555,-40.5249319811555,-13.));
#1870=CARTESIAN_POINT('',(-49.5249319811555,-25.2624659905778,-13.));
#1871=CARTESIAN_POINT('',(-50.5249319811555,-40.5249319811555,-12.));
#1872=CARTESIAN_POINT('',(-49.5249319811555,-40.5249319811555,-13.));
#1873=CARTESIAN_POINT('',(-50.5249319811555,-25.2624659905778,-12.));
#1874=CARTESIAN_POINT('Origin',(-40.5249319811555,-40.5249319811555,-12.5));
#1875=CARTESIAN_POINT('',(-40.5249319811555,-49.5249319811555,-13.));
#1876=CARTESIAN_POINT('',(-40.5249319811555,-50.5249319811555,-12.));
#1877=CARTESIAN_POINT('',(-40.5249319811555,-49.5249319811555,-13.));
#1878=CARTESIAN_POINT('Origin',(-40.5249319811555,-40.5249319811555,-12.));
#1879=CARTESIAN_POINT('Origin',(-40.5249319811555,-40.5249319811555,-13.));
#1880=CARTESIAN_POINT('Origin',(25.2624659905778,-50.0249319811555,-12.5));
#1881=CARTESIAN_POINT('',(40.5249319811555,-49.5249319811555,-13.));
#1882=CARTESIAN_POINT('',(25.2624659905778,-49.5249319811555,-13.));
#1883=CARTESIAN_POINT('',(40.5249319811555,-50.5249319811555,-12.));
#1884=CARTESIAN_POINT('',(40.5249319811555,-49.5249319811555,-13.));
#1885=CARTESIAN_POINT('',(25.2624659905778,-50.5249319811555,-12.));
#1886=CARTESIAN_POINT('Origin',(40.5249319811555,-40.5249319811555,-12.5));
#1887=CARTESIAN_POINT('',(49.5249319811555,-40.5249319811555,-13.));
#1888=CARTESIAN_POINT('',(50.5249319811555,-40.5249319811555,-12.));
#1889=CARTESIAN_POINT('',(49.5249319811555,-40.5249319811555,-13.));
#1890=CARTESIAN_POINT('Origin',(40.5249319811555,-40.5249319811555,-12.));
#1891=CARTESIAN_POINT('Origin',(40.5249319811555,-40.5249319811555,-13.));
#1892=CARTESIAN_POINT('Origin',(50.0249319811555,25.2624659905778,-12.5));
#1893=CARTESIAN_POINT('',(49.5249319811555,25.2624659905778,-13.));
#1894=CARTESIAN_POINT('',(50.5249319811555,25.2624659905778,-12.));
#1895=CARTESIAN_POINT('Origin',(50.5249319811555,-50.5249319811555,2.));
#1896=CARTESIAN_POINT('',(-40.5249319811555,-50.5249319811555,2.));
#1897=CARTESIAN_POINT('',(40.5249319811555,-50.5249319811555,2.));
#1898=CARTESIAN_POINT('Origin',(40.5249319811555,-40.5249319811555,2.));
#1899=CARTESIAN_POINT('',(50.5249319811555,-40.5249319811555,2.));
#1900=CARTESIAN_POINT('Origin',(50.5249319811555,50.5249319811555,2.));
#1901=CARTESIAN_POINT('',(50.5249319811555,40.5249319811555,2.));
#1902=CARTESIAN_POINT('Origin',(40.5249319811555,40.5249319811555,2.));
#1903=CARTESIAN_POINT('',(40.5249319811555,50.5249319811555,2.));
#1904=CARTESIAN_POINT('Origin',(0.,0.,-13.));
#1905=CARTESIAN_POINT('Origin',(-50.5249319811555,50.5249319811555,2.));
#1906=CARTESIAN_POINT('',(-40.5249319811555,50.5249319811555,2.));
#1907=CARTESIAN_POINT('Origin',(-40.5249319811555,-40.5249319811555,2.));
#1908=CARTESIAN_POINT('',(-50.5249319811555,-40.5249319811555,2.));
#1909=CARTESIAN_POINT('Origin',(-40.5249319811555,40.5249319811555,2.));
#1910=CARTESIAN_POINT('',(-50.5249319811555,40.5249319811555,2.));
#1911=CARTESIAN_POINT('Origin',(-50.5249319811555,-50.5249319811555,2.));
#1912=CARTESIAN_POINT('Origin',(0.,0.,2.));
#1913=UNCERTAINTY_MEASURE_WITH_UNIT(LENGTH_MEASURE(0.01),#1917,
'DISTANCE_ACCURACY_VALUE',
'Maximum model space distance between geometric entities at asserted c
onnectivities');
#1914=UNCERTAINTY_MEASURE_WITH_UNIT(LENGTH_MEASURE(0.01),#1917,
'DISTANCE_ACCURACY_VALUE',
'Maximum model space distance between geometric entities at asserted c
onnectivities');
#1915=(
GEOMETRIC_REPRESENTATION_CONTEXT(3)
GLOBAL_UNCERTAINTY_ASSIGNED_CONTEXT((#1913))
GLOBAL_UNIT_ASSIGNED_CONTEXT((#1917,#1919,#1920))
REPRESENTATION_CONTEXT('','3D')
);
#1916=(
GEOMETRIC_REPRESENTATION_CONTEXT(3)
GLOBAL_UNCERTAINTY_ASSIGNED_CONTEXT((#1914))
GLOBAL_UNIT_ASSIGNED_CONTEXT((#1917,#1919,#1920))
REPRESENTATION_CONTEXT('','3D')
);
#1917=(
LENGTH_UNIT()
NAMED_UNIT(*)
SI_UNIT(.MILLI.,.METRE.)
);
#1918=(
LENGTH_UNIT()
NAMED_UNIT(*)
SI_UNIT($,.METRE.)
);
#1919=(
NAMED_UNIT(*)
PLANE_ANGLE_UNIT()
SI_UNIT($,.RADIAN.)
);
#1920=(
NAMED_UNIT(*)
SI_UNIT($,.STERADIAN.)
SOLID_ANGLE_UNIT()
);
#1921=SHAPE_DEFINITION_REPRESENTATION(#1922,#1923);
#1922=PRODUCT_DEFINITION_SHAPE('',$,#1925);
#1923=SHAPE_REPRESENTATION('',(#1107),#1915);
#1924=PRODUCT_DEFINITION_CONTEXT('part definition',#1929,'design');
#1925=PRODUCT_DEFINITION('2026-05-18-22-41-09-595','Injection side',#1926,
#1924);
#1926=PRODUCT_DEFINITION_FORMATION('',$,#1931);
#1927=PRODUCT_RELATED_PRODUCT_CATEGORY('Injection side',
'Injection side',(#1931));
#1928=APPLICATION_PROTOCOL_DEFINITION('international standard',
'automotive_design',2009,#1929);
#1929=APPLICATION_CONTEXT(
'Core Data for Automotive Mechanical Design Process');
#1930=PRODUCT_CONTEXT('part definition',#1929,'mechanical');
#1931=PRODUCT('2026-05-18-22-41-09-595','Injection side',$,(#1930));
#1932=PRESENTATION_STYLE_ASSIGNMENT((#1933));
#1933=SURFACE_STYLE_USAGE(.BOTH.,#1934);
#1934=SURFACE_SIDE_STYLE('',(#1935));
#1935=SURFACE_STYLE_FILL_AREA(#1936);
#1936=FILL_AREA_STYLE('Aluminum - Satin',(#1937));
#1937=FILL_AREA_STYLE_COLOUR('Aluminum - Satin',#1938);
#1938=COLOUR_RGB('Aluminum - Satin',0.96078431372549,0.96078431372549,0.964705882352941);
ENDSEC;
END-ISO-10303-21;
